<svg width="379" height="58" viewBox="0 0 379 58" fill="none" xmlns="http://www.w3.org/2000/svg">
<path d="M45.5343 28.2983C45.0543 27.6652 45.0134 26.8271 45.4036 26.14C46.6169 24.0038 47.3009 21.5538 47.2879 18.9504C47.2467 10.6756 40.0794 3.96071 31.4095 4.06767C22.8495 4.17326 15.9443 10.8286 15.9443 19.0231C15.9443 22.3397 17.0754 25.4041 18.9896 27.8841C19.8173 28.9566 19.7597 30.4415 18.8249 31.4305C17.4054 32.9324 14.3481 33.9069 7.87227 29.7721C7.16214 29.3187 6.32839 29.0728 5.47397 29.0728C3.34447 29.0728 1.54182 30.5631 1.22761 32.5732C0.0805429 39.9109 -0.0656178 56.2311 21.3332 56.2311H28.9217C48.9921 56.2311 54.3381 39.9094 45.5343 28.2983Z" fill="#FFDE76"/>
<path d="M18.8242 31.4301C18.4046 31.8739 17.8418 32.2717 17.09 32.5052C19.7022 33.1045 21.2343 32.3708 22.1235 31.4301C23.0583 30.4409 23.1159 28.9562 22.2882 27.8837C20.3741 25.4036 19.243 22.3391 19.243 19.0225C19.243 11.2964 25.3817 4.93955 33.258 4.14952C32.6507 4.08833 32.0339 4.05947 31.4087 4.06713C22.8488 4.17282 15.9436 10.8281 15.9436 19.0225C15.9436 22.3391 17.0747 25.4035 18.9889 27.8837C19.8166 28.9562 19.759 30.441 18.8242 31.4301Z" fill="#FFB641"/>
<path d="M4.52622 32.5725C4.75432 31.1138 5.76656 29.9295 7.11852 29.3891C6.59909 29.1831 6.04128 29.0723 5.47325 29.0723C3.34374 29.0723 1.54109 30.5626 1.22688 32.5727C0.0798101 39.9102 -0.0663507 56.2305 21.3325 56.2305H24.6319C3.23299 56.2305 3.37915 39.9102 4.52622 32.5725Z" fill="#FFB641"/>
<path d="M7.83334 39.148C6.89754 40.0298 6.7362 41.4168 7.44919 42.4713C9.5314 45.5509 14.7461 51.2621 24.7834 51.2621C30.8958 51.2621 37.3583 47.6138 38.5618 41.5733C39.5556 36.5845 36.5071 30.4861 30.5198 30.7484C26.1325 30.9407 23.5663 34.5604 19.8587 36.234C17.2541 37.4097 14.4308 38.1343 11.5651 38.4049C10.2012 38.5336 8.93147 38.1131 7.83334 39.148Z" fill="#FFB641"/>
<path d="M44.8885 11.0956C44.8885 11.0956 45.2299 15.7651 42.9633 17.8801C40.6968 19.9952 44.4743 23.312 48.9571 20.1874C49.6011 19.7386 50.2535 19.4535 50.8984 19.2941C51.7286 19.0891 52.3121 18.3806 52.3121 17.5622C52.3121 16.7752 51.775 16.075 50.9843 15.852C50.4585 15.7037 49.7908 15.6151 49.0075 15.717C49.0075 15.717 51.7184 13.4616 51.0486 10.8517C50.8322 10.0082 49.7829 9.6571 49.0378 10.1557C48.0743 10.8001 46.5791 11.4796 44.8885 11.0956Z" fill="#FFB641"/>
<path d="M30.4796 29.9622C27.4528 30.0949 25.2606 31.6896 23.1406 33.232C22.3621 33.7984 21.5572 34.3839 20.734 34.8744C20.3477 35.1047 20.23 35.5902 20.4712 35.959C20.7123 36.3279 21.2213 36.4401 21.6077 36.2099C22.4961 35.6806 23.3321 35.0723 24.1406 34.4842C26.1475 33.0242 28.0429 31.6451 30.5552 31.535C33.1294 31.422 34.7876 32.6296 35.726 33.6624C37.5046 35.6198 38.2987 38.6674 37.7491 41.4265C36.5781 47.3039 30.1937 50.4752 24.781 50.4752C15.2615 50.4752 10.2687 45.1932 8.13987 42.0447C7.64178 41.308 7.75561 40.3254 8.41042 39.7083C8.93523 39.2137 9.46951 39.1993 10.4462 39.2154C10.8272 39.2218 11.2211 39.2283 11.6439 39.1884C14.0222 38.9639 16.3393 38.4402 18.5307 37.6317C18.9556 37.4749 19.1668 37.0191 19.0026 36.6136C18.8384 36.208 18.3608 36.0063 17.9358 36.1631C15.8833 36.9204 13.7117 37.4112 11.4816 37.6216C11.1543 37.6526 10.8244 37.6469 10.4751 37.6412C9.45334 37.6243 8.29472 37.6048 7.25147 38.588C6.04391 39.726 5.83451 41.5388 6.75382 42.8983C7.82984 44.4897 9.7296 46.7836 12.6699 48.6746C16.152 50.914 20.2267 52.0496 24.781 52.0496C28.0523 52.0496 31.3191 51.0841 33.9797 49.3309C36.8968 47.4087 38.7606 44.7771 39.3697 41.7206C40.0101 38.5063 39.069 34.9384 36.9724 32.631C35.284 30.7729 33.0396 29.8504 30.4796 29.9622Z" fill="black"/>
<path d="M41.502 14.3896L41.1053 12.787C41.0006 12.3639 40.5565 12.1021 40.1129 12.2019C39.6696 12.3019 39.3951 12.7258 39.4998 13.1489C39.4998 13.1489 39.8962 14.75 39.8965 14.7515C39.9993 15.1672 40.4539 15.4346 40.8888 15.3367C41.3322 15.2367 41.6068 14.8128 41.502 14.3896Z" fill="black"/>
<path d="M51.2154 15.0965C51.0655 15.0542 50.9136 15.0182 50.76 14.9886C51.5255 13.95 52.2912 12.3943 51.8472 10.6639C51.498 9.30308 49.7512 8.71468 48.5617 9.51037C47.9418 9.92507 46.9738 10.4193 45.8815 10.4193C45.7153 10.4193 45.5493 10.4064 45.3846 10.3837C43.9385 8.2962 41.9801 6.54727 39.6989 5.31379C37.2361 3.98218 34.4392 3.27832 31.6104 3.27832C31.5388 3.27832 31.4674 3.27874 31.3956 3.27968C27.0348 3.33353 22.944 4.99493 19.8769 7.95803C16.8069 10.9236 15.1162 14.853 15.1162 19.0222C15.1162 22.4071 16.2248 25.6326 18.3222 28.3501C18.921 29.1261 18.8735 30.1995 18.2091 30.9024C17.5616 31.5875 16.6708 31.9349 15.5612 31.9349C13.6899 31.9349 11.2562 30.9868 8.32773 29.1168C7.47496 28.5724 6.48702 28.2846 5.47083 28.2846C2.91549 28.2846 0.786531 30.0389 0.408646 32.456C-0.291144 36.9317 -0.694874 45.2924 4.46233 51.003C8.06642 54.9939 13.7415 57.0174 21.33 57.0174H28.9185C33.732 57.0174 37.9239 56.1079 41.378 54.3144C44.5397 52.6727 47.0298 50.2746 48.579 47.3795C51.7536 41.4474 50.8417 33.9588 46.1992 27.8359C45.9084 27.4524 45.8802 26.946 46.1254 26.5142C46.9808 25.0081 47.5658 23.3909 47.8689 21.7012C48.399 21.475 48.926 21.1815 49.4409 20.8225C49.9667 20.4561 50.5257 20.198 51.1023 20.0556C52.2987 19.7603 53.1343 18.7347 53.1343 17.5617C53.1343 16.4289 52.3452 15.4152 51.2154 15.0965ZM46.0832 22.2027C45.7855 23.4457 45.3139 24.6393 44.6752 25.7639C44.1333 26.7181 44.2069 27.8936 44.8629 28.7588C49.1403 34.4002 50.0013 41.2607 47.1101 46.6634C45.6927 49.3119 43.4989 51.4209 40.5897 52.9314C37.3802 54.5981 33.4534 55.443 28.9185 55.443H21.33C14.2431 55.443 8.98848 53.6034 5.7119 49.9751C3.68258 47.7281 0.507186 42.4943 2.04017 32.6885C2.29642 31.049 3.73922 29.8591 5.47072 29.8591C6.15918 29.8591 6.82994 30.055 7.41029 30.4255C10.6152 32.4717 13.3575 33.5093 15.5611 33.5093C17.135 33.5093 18.4742 32.9724 19.4341 31.9568C20.6209 30.7011 20.7118 28.7916 19.6504 27.4163C17.7634 24.9715 16.7659 22.0687 16.7659 19.0222C16.7659 15.2699 18.2875 11.7335 21.0504 9.0644C23.811 6.3976 27.4925 4.90235 31.417 4.85386C36.5469 4.78868 41.2694 7.22268 44.0723 11.3418C44.0723 11.3432 44.0724 11.3445 44.0724 11.3459C44.1007 12.1036 44.0597 12.8682 43.9516 13.6194C43.7865 14.7929 43.3805 16.3868 42.3841 17.3166C41.5722 18.0742 41.216 19.1947 41.6553 20.2232C42.2413 21.5954 43.8511 22.2537 45.3223 22.2537C45.5763 22.2538 45.8317 22.236 46.0832 22.2027ZM50.6891 18.5315C49.91 18.7239 49.1628 19.067 48.4681 19.5512C47.8365 19.9914 47.2563 20.2661 46.7455 20.4347C45.8483 20.7311 44.7803 20.8181 43.922 20.3621C43.5485 20.1635 43.297 19.8959 43.1831 19.629C42.9671 19.1232 43.2565 18.7046 43.5375 18.4424C43.5386 18.4413 43.5396 18.4403 43.5407 18.4392C44.5607 17.4897 45.1146 16.1378 45.4027 14.829C45.4033 14.8259 45.404 14.8229 45.4047 14.8198C45.6493 13.7399 45.7174 12.7054 45.7284 11.9915C46.9844 12.0269 48.2915 11.6138 49.5087 10.7996C49.7697 10.625 50.1656 10.7294 50.245 11.0384C50.785 13.1426 48.4849 15.1047 48.463 15.1231C48.1883 15.3517 48.1033 15.7252 48.2541 16.0419C48.4047 16.3586 48.7551 16.5435 49.1165 16.4964C49.6786 16.4235 50.2319 16.4609 50.748 16.6064C51.752 16.8896 51.6775 18.2875 50.6891 18.5315Z" fill="black"/>
<path d="M240.534 26.3896C240.054 25.7565 240.013 24.9184 240.404 24.2313C241.617 22.0951 242.301 19.6452 242.288 17.0418C242.247 8.76688 235.079 2.05202 226.41 2.15898C217.85 2.26456 210.944 8.91991 210.944 17.1144C210.944 20.431 212.075 23.4954 213.99 25.9754C214.817 27.0479 214.76 28.5328 213.825 29.5218C212.405 31.0237 209.348 31.9982 202.872 27.8635C202.162 27.41 201.328 27.1641 200.474 27.1641C198.344 27.1641 196.542 28.6544 196.228 30.6645C195.081 38.0022 194.934 54.3224 216.333 54.3224H223.922C243.992 54.3224 249.338 38.0007 240.534 26.3896Z" fill="#FFDE76"/>
<path d="M213.824 29.5214C213.405 29.9653 212.842 30.363 212.09 30.5965C214.702 31.1958 216.234 30.4621 217.123 29.5214C218.058 28.5322 218.116 27.0475 217.288 25.975C215.374 23.4949 214.243 20.4305 214.243 17.1138C214.243 9.3877 220.382 3.03086 228.258 2.24083C227.651 2.17964 227.034 2.15077 226.409 2.15844C217.849 2.26413 210.944 8.91938 210.944 17.1138C210.944 20.4305 212.075 23.4948 213.989 25.975C214.817 27.0475 214.759 28.5324 213.824 29.5214Z" fill="#FFB641"/>
<path d="M199.526 30.6639C199.754 29.2051 200.767 28.0208 202.119 27.4804C201.599 27.2744 201.041 27.1636 200.473 27.1636C198.344 27.1636 196.541 28.6539 196.227 30.664C195.08 38.0015 194.934 54.3217 216.333 54.3217H219.632C198.233 54.3217 198.379 38.0015 199.526 30.6639Z" fill="#FFB641"/>
<path d="M202.833 37.2393C201.898 38.1211 201.736 39.5081 202.449 40.5626C204.531 43.6422 209.746 49.3535 219.783 49.3535C225.896 49.3535 232.358 45.7051 233.562 39.6646C234.556 34.6758 231.507 28.5774 225.52 28.8397C221.132 29.032 218.566 32.6517 214.859 34.3253C212.254 35.5011 209.431 36.2256 206.565 36.4962C205.201 36.625 203.931 36.2044 202.833 37.2393Z" fill="#FFB641"/>
<path d="M239.889 9.18687C239.889 9.18687 240.23 13.8564 237.963 15.9714C235.697 18.0865 239.474 21.4033 243.957 18.2787C244.601 17.8299 245.253 17.5448 245.898 17.3854C246.729 17.1805 247.312 16.4719 247.312 15.6535C247.312 14.8665 246.775 14.1663 245.984 13.9433C245.458 13.795 244.791 13.7064 244.008 13.8083C244.008 13.8083 246.718 11.5529 246.049 8.94305C245.832 8.09949 244.783 7.74841 244.038 8.24696C243.074 8.89141 241.579 9.57092 239.889 9.18687Z" fill="#FFB641"/>
<path d="M225.48 28.0535C222.453 28.1862 220.261 29.7809 218.141 31.3233C217.362 31.8897 216.557 32.4752 215.734 32.9657C215.348 33.196 215.23 33.6815 215.471 34.0503C215.712 34.4192 216.221 34.5314 216.608 34.3012C217.496 33.7719 218.332 33.1637 219.141 32.5755C221.147 31.1155 223.043 29.7364 225.555 29.6263C228.129 29.5133 229.788 30.7209 230.726 31.7537C232.505 33.7111 233.299 36.7587 232.749 39.5178C231.578 45.3952 225.194 48.5665 219.781 48.5665C210.262 48.5665 205.269 43.2845 203.14 40.136C202.642 39.3993 202.756 38.4167 203.41 37.7996C203.935 37.305 204.47 37.2906 205.446 37.3067C205.827 37.3131 206.221 37.3196 206.644 37.2797C209.022 37.0552 211.339 36.5315 213.531 35.723C213.956 35.5662 214.167 35.1104 214.003 34.7049C213.838 34.2993 213.361 34.0976 212.936 34.2544C210.883 35.0117 208.712 35.5025 206.482 35.7129C206.154 35.7439 205.824 35.7382 205.475 35.7325C204.453 35.7156 203.295 35.6961 202.251 36.6793C201.044 37.8173 200.835 39.6301 201.754 40.9896C202.83 42.581 204.73 44.8749 207.67 46.7659C211.152 49.0053 215.227 50.1409 219.781 50.1409C223.052 50.1409 226.319 49.1754 228.98 47.4222C231.897 45.5 233.761 42.8684 234.37 39.8119C235.01 36.5976 234.069 33.0297 231.972 30.7223C230.284 28.8642 228.04 27.9417 225.48 28.0535Z" fill="black"/>
<path d="M236.502 12.4809L236.105 10.8783C236.001 10.4552 235.556 10.1934 235.113 10.2932C234.67 10.3932 234.395 10.8171 234.5 11.2402C234.5 11.2402 234.896 12.8414 234.896 12.8428C234.999 13.2585 235.454 13.5259 235.889 13.428C236.332 13.3281 236.607 12.9041 236.502 12.4809Z" fill="black"/>
<path d="M246.215 13.1878C246.066 13.1455 245.914 13.1095 245.76 13.0799C246.525 12.0413 247.291 10.4856 246.847 8.75518C246.498 7.39438 244.751 6.80598 243.562 7.60168C242.942 8.01637 241.974 8.51062 240.882 8.51062C240.715 8.51062 240.549 8.49771 240.385 8.47504C238.939 6.38751 236.98 4.63858 234.699 3.4051C232.236 2.07348 229.439 1.36963 226.61 1.36963C226.539 1.36963 226.467 1.37005 226.396 1.37099C222.035 1.42484 217.944 3.08623 214.877 6.04933C211.807 9.01495 210.116 12.9443 210.116 17.1135C210.116 20.4984 211.225 23.7239 213.322 26.4414C213.921 27.2174 213.874 28.2908 213.209 28.9937C212.562 29.6788 211.671 30.0262 210.561 30.0262C208.69 30.0262 206.256 29.0781 203.328 27.2081C202.475 26.6637 201.487 26.3759 200.471 26.3759C197.915 26.3759 195.787 28.1302 195.409 30.5473C194.709 35.023 194.305 43.3837 199.462 49.0943C203.066 53.0852 208.742 55.1087 216.33 55.1087H223.918C228.732 55.1087 232.924 54.1992 236.378 52.4057C239.54 50.764 242.03 48.3659 243.579 45.4708C246.754 39.5387 245.842 32.0501 241.199 25.9272C240.908 25.5437 240.88 25.0373 241.125 24.6055C241.981 23.0994 242.566 21.4822 242.869 19.7925C243.399 19.5663 243.926 19.2728 244.441 18.9139C244.967 18.5474 245.526 18.2893 246.102 18.1469C247.299 17.8516 248.134 16.826 248.134 15.653C248.134 14.5202 247.345 13.5065 246.215 13.1878ZM241.083 20.294C240.785 21.537 240.314 22.7306 239.675 23.8552C239.133 24.8094 239.207 25.9849 239.863 26.8501C244.14 32.4915 245.001 39.352 242.11 44.7547C240.693 47.4032 238.499 49.5122 235.59 51.0227C232.38 52.6894 228.453 53.5343 223.918 53.5343H216.33C209.243 53.5343 203.988 51.6947 200.712 48.0664C198.683 45.8194 195.507 40.5856 197.04 30.7798C197.296 29.1403 198.739 27.9504 200.471 27.9504C201.159 27.9504 201.83 28.1463 202.41 28.5168C205.615 30.563 208.357 31.6006 210.561 31.6006C212.135 31.6006 213.474 31.0637 214.434 30.0481C215.621 28.7924 215.712 26.8829 214.65 25.5076C212.763 23.0628 211.766 20.16 211.766 17.1135C211.766 13.3612 213.287 9.82482 216.05 7.15571C218.811 4.48891 222.493 2.99366 226.417 2.94517C231.547 2.87999 236.269 5.31399 239.072 9.43311C239.072 9.43447 239.072 9.43584 239.072 9.4372C239.101 10.1949 239.06 10.9595 238.952 11.7107C238.787 12.8842 238.38 14.4781 237.384 15.4079C236.572 16.1655 236.216 17.286 236.655 18.3145C237.241 19.6867 238.851 20.345 240.322 20.345C240.576 20.3451 240.832 20.3273 241.083 20.294ZM245.689 16.6228C244.91 16.8152 244.163 17.1583 243.468 17.6425C242.836 18.0827 242.256 18.3574 241.745 18.526C240.848 18.8224 239.78 18.9094 238.922 18.4534C238.549 18.2548 238.297 17.9872 238.183 17.7203C237.967 17.2145 238.257 16.7959 238.538 16.5337C238.539 16.5326 238.54 16.5316 238.541 16.5305C239.561 15.581 240.115 14.2291 240.403 12.9203C240.403 12.9172 240.404 12.9142 240.405 12.9111C240.649 11.8312 240.717 10.7967 240.728 10.0828C241.984 10.1182 243.291 9.70506 244.509 8.89089C244.77 8.71634 245.166 8.82067 245.245 9.12967C245.785 11.2339 243.485 13.196 243.463 13.2144C243.188 13.443 243.103 13.8165 243.254 14.1332C243.405 14.4499 243.755 14.6348 244.117 14.5878C244.679 14.5148 245.232 14.5522 245.748 14.6978C246.752 14.9809 246.677 16.3788 245.689 16.6228Z" fill="black"/>
<path d="M110.534 28.2983C110.054 27.6652 110.013 26.8271 110.403 26.14C111.616 24.0038 112.3 21.5538 112.287 18.9504C112.246 10.6756 105.079 3.96071 96.4091 4.06767C87.849 4.17326 80.9438 10.8286 80.9438 19.0231C80.9438 22.3397 82.075 25.4041 83.9891 27.8841C84.8168 28.9566 84.7592 30.4415 83.8244 31.4305C82.4049 32.9324 79.3476 33.9069 72.8718 29.7721C72.1616 29.3187 71.3279 29.0728 70.4735 29.0728C68.344 29.0728 66.5413 30.5631 66.2271 32.5732C65.0801 39.9109 64.9339 56.2311 86.3328 56.2311H93.9212C113.992 56.2311 119.338 39.9094 110.534 28.2983Z" fill="#FFDE76"/>
<path d="M83.8241 31.4301C83.4046 31.8739 82.8418 32.2717 82.09 32.5052C84.7022 33.1045 86.2343 32.3708 87.1235 31.4301C88.0583 30.4409 88.1159 28.9562 87.2882 27.8837C85.3741 25.4036 84.2429 22.3391 84.2429 19.0225C84.2429 11.2964 90.3817 4.93955 98.258 4.14952C97.6507 4.08833 97.0338 4.05947 96.4087 4.06713C87.8488 4.17282 80.9436 10.8281 80.9436 19.0225C80.9436 22.3391 82.0747 25.4035 83.9889 27.8837C84.8166 28.9562 84.759 30.441 83.8241 31.4301Z" fill="#FFB641"/>
<path d="M69.5262 32.5725C69.7543 31.1138 70.7666 29.9295 72.1185 29.3891C71.5991 29.1831 71.0413 29.0723 70.4732 29.0723C68.3437 29.0723 66.5411 30.5626 66.2269 32.5727C65.0798 39.9102 64.9336 56.2305 86.3325 56.2305H89.6319C68.233 56.2305 68.3792 39.9102 69.5262 32.5725Z" fill="#FFB641"/>
<path d="M72.8333 39.148C71.8975 40.0298 71.7362 41.4168 72.4492 42.4713C74.5314 45.5509 79.7461 51.2621 89.7834 51.2621C95.8958 51.2621 102.358 47.6138 103.562 41.5733C104.556 36.5845 101.507 30.4861 95.5198 30.7484C91.1325 30.9407 88.5663 34.5604 84.8587 36.234C82.2541 37.4097 79.4308 38.1343 76.5651 38.4049C75.2012 38.5336 73.9315 38.1131 72.8333 39.148Z" fill="#FFB641"/>
<path d="M109.889 11.0956C109.889 11.0956 110.23 15.7651 107.963 17.8801C105.697 19.9952 109.474 23.312 113.957 20.1874C114.601 19.7386 115.253 19.4535 115.898 19.2941C116.729 19.0891 117.312 18.3806 117.312 17.5622C117.312 16.7752 116.775 16.075 115.984 15.852C115.458 15.7037 114.791 15.6151 114.008 15.717C114.008 15.717 116.718 13.4616 116.049 10.8517C115.832 10.0082 114.783 9.6571 114.038 10.1557C113.074 10.8001 111.579 11.4796 109.889 11.0956Z" fill="#FFB641"/>
<path d="M95.4796 29.9622C92.4528 30.0949 90.2606 31.6896 88.1405 33.232C87.3621 33.7984 86.5572 34.3839 85.734 34.8744C85.3476 35.1047 85.23 35.5902 85.4712 35.959C85.7123 36.3279 86.2213 36.4401 86.6077 36.2099C87.4961 35.6806 88.3321 35.0723 89.1406 34.4842C91.1474 33.0242 93.0429 31.6451 95.5551 31.535C98.1294 31.422 99.7875 32.6296 100.726 33.6624C102.505 35.6198 103.299 38.6674 102.749 41.4265C101.578 47.3039 95.1936 50.4752 89.781 50.4752C80.2615 50.4752 75.2687 45.1932 73.1399 42.0447C72.6418 41.308 72.7556 40.3254 73.4104 39.7083C73.9352 39.2137 74.4695 39.1993 75.4462 39.2154C75.8272 39.2218 76.2211 39.2283 76.6439 39.1884C79.0222 38.9639 81.3393 38.4402 83.5307 37.6317C83.9555 37.4749 84.1668 37.0191 84.0026 36.6136C83.8384 36.208 83.3608 36.0063 82.9358 36.1631C80.8833 36.9204 78.7117 37.4112 76.4816 37.6216C76.1543 37.6526 75.8244 37.6469 75.4751 37.6412C74.4533 37.6243 73.2947 37.6048 72.2515 38.588C71.0439 39.726 70.8345 41.5388 71.7538 42.8983C72.8298 44.4897 74.7296 46.7836 77.6699 48.6746C81.152 50.914 85.2267 52.0496 89.781 52.0496C93.0523 52.0496 96.3191 51.0841 98.9796 49.3309C101.897 47.4087 103.761 44.7771 104.37 41.7206C105.01 38.5063 104.069 34.9384 101.972 32.631C100.284 30.7729 98.0395 29.8504 95.4796 29.9622Z" fill="black"/>
<path d="M106.502 14.3896L106.105 12.787C106.001 12.3639 105.556 12.1021 105.113 12.2019C104.67 12.3019 104.395 12.7258 104.5 13.1489C104.5 13.1489 104.896 14.75 104.897 14.7515C104.999 15.1672 105.454 15.4346 105.889 15.3367C106.332 15.2367 106.607 14.8128 106.502 14.3896Z" fill="black"/>
<path d="M116.215 15.0965C116.066 15.0542 115.914 15.0182 115.76 14.9886C116.525 13.95 117.291 12.3943 116.847 10.6639C116.498 9.30308 114.751 8.71468 113.562 9.51037C112.942 9.92507 111.974 10.4193 110.882 10.4193C110.715 10.4193 110.549 10.4064 110.385 10.3837C108.939 8.2962 106.98 6.54727 104.699 5.31379C102.236 3.98218 99.4392 3.27832 96.6104 3.27832C96.5388 3.27832 96.4674 3.27874 96.3956 3.27968C92.0348 3.33353 87.944 4.99493 84.8769 7.95803C81.8069 10.9236 80.1162 14.853 80.1162 19.0222C80.1162 22.4071 81.2248 25.6326 83.3222 28.3501C83.921 29.1261 83.8735 30.1995 83.2091 30.9024C82.5616 31.5875 81.6708 31.9349 80.5612 31.9349C78.6899 31.9349 76.2562 30.9868 73.3277 29.1168C72.475 28.5724 71.487 28.2846 70.4708 28.2846C67.9155 28.2846 65.7865 30.0389 65.4086 32.456C64.7089 36.9317 64.3051 45.2924 69.4623 51.003C73.0664 54.9939 78.7415 57.0174 86.33 57.0174H93.9185C98.732 57.0174 102.924 56.1079 106.378 54.3144C109.54 52.6727 112.03 50.2746 113.579 47.3795C116.754 41.4474 115.842 33.9588 111.199 27.8359C110.908 27.4524 110.88 26.946 111.125 26.5142C111.981 25.0081 112.566 23.3909 112.869 21.7012C113.399 21.475 113.926 21.1815 114.441 20.8225C114.967 20.4561 115.526 20.198 116.102 20.0556C117.299 19.7603 118.134 18.7347 118.134 17.5617C118.134 16.4289 117.345 15.4152 116.215 15.0965ZM111.083 22.2027C110.785 23.4457 110.314 24.6393 109.675 25.7639C109.133 26.7181 109.207 27.8936 109.863 28.7588C114.14 34.4002 115.001 41.2607 112.11 46.6634C110.693 49.3119 108.499 51.4209 105.59 52.9314C102.38 54.5981 98.4534 55.443 93.9185 55.443H86.33C79.2431 55.443 73.9885 53.6034 70.7119 49.9751C68.6826 47.7281 65.5072 42.4943 67.0402 32.6885C67.2964 31.049 68.7392 29.8591 70.4707 29.8591C71.1592 29.8591 71.8299 30.055 72.4103 30.4255C75.6152 32.4717 78.3575 33.5093 80.5611 33.5093C82.135 33.5093 83.4742 32.9724 84.4341 31.9568C85.6209 30.7011 85.7118 28.7916 84.6504 27.4163C82.7634 24.9715 81.7659 22.0687 81.7659 19.0222C81.7659 15.2699 83.2875 11.7335 86.0504 9.0644C88.811 6.3976 92.4925 4.90235 96.417 4.85386C101.547 4.78868 106.269 7.22268 109.072 11.3418C109.072 11.3432 109.072 11.3445 109.072 11.3459C109.101 12.1036 109.06 12.8682 108.952 13.6194C108.787 14.7929 108.38 16.3868 107.384 17.3166C106.572 18.0742 106.216 19.1947 106.655 20.2232C107.241 21.5954 108.851 22.2537 110.322 22.2537C110.576 22.2538 110.832 22.236 111.083 22.2027ZM115.689 18.5315C114.91 18.7239 114.163 19.067 113.468 19.5512C112.836 19.9914 112.256 20.2661 111.745 20.4347C110.848 20.7311 109.78 20.8181 108.922 20.3621C108.549 20.1635 108.297 19.8959 108.183 19.629C107.967 19.1232 108.257 18.7046 108.538 18.4424C108.539 18.4413 108.54 18.4403 108.541 18.4392C109.561 17.4897 110.115 16.1378 110.403 14.829C110.403 14.8259 110.404 14.8229 110.405 14.8198C110.649 13.7399 110.717 12.7054 110.728 11.9915C111.984 12.0269 113.291 11.6138 114.509 10.7996C114.77 10.625 115.166 10.7294 115.245 11.0384C115.785 13.1426 113.485 15.1047 113.463 15.1231C113.188 15.3517 113.103 15.7252 113.254 16.0419C113.405 16.3586 113.755 16.5435 114.117 16.4964C114.679 16.4235 115.232 16.4609 115.748 16.6064C116.752 16.8896 116.677 18.2875 115.689 18.5315Z" fill="black"/>
<path d="M305.534 26.3896C305.054 25.7565 305.013 24.9184 305.403 24.2313C306.616 22.0951 307.3 19.6452 307.287 17.0418C307.246 8.76688 300.079 2.05202 291.409 2.15898C282.849 2.26456 275.944 8.91991 275.944 17.1144C275.944 20.431 277.075 23.4954 278.989 25.9754C279.817 27.0479 279.759 28.5328 278.824 29.5218C277.405 31.0237 274.348 31.9982 267.872 27.8635C267.162 27.41 266.328 27.1641 265.473 27.1641C263.344 27.1641 261.541 28.6544 261.227 30.6645C260.08 38.0022 259.934 54.3224 281.333 54.3224H288.921C308.992 54.3224 314.338 38.0007 305.534 26.3896Z" fill="#FFDE76"/>
<path d="M278.824 29.5214C278.405 29.9653 277.842 30.363 277.09 30.5965C279.702 31.1958 281.234 30.4621 282.123 29.5214C283.058 28.5322 283.116 27.0475 282.288 25.975C280.374 23.4949 279.243 20.4305 279.243 17.1138C279.243 9.3877 285.382 3.03086 293.258 2.24083C292.651 2.17964 292.034 2.15077 291.409 2.15844C282.849 2.26413 275.944 8.91938 275.944 17.1138C275.944 20.4305 277.075 23.4948 278.989 25.975C279.817 27.0475 279.759 28.5324 278.824 29.5214Z" fill="#FFB641"/>
<path d="M264.526 30.6639C264.754 29.2051 265.767 28.0208 267.119 27.4804C266.599 27.2744 266.041 27.1636 265.473 27.1636C263.344 27.1636 261.541 28.6539 261.227 30.664C260.08 38.0015 259.934 54.3217 281.332 54.3217H284.632C263.233 54.3217 263.379 38.0015 264.526 30.6639Z" fill="#FFB641"/>
<path d="M267.833 37.2393C266.898 38.1211 266.736 39.5081 267.449 40.5626C269.531 43.6422 274.746 49.3535 284.783 49.3535C290.896 49.3535 297.358 45.7051 298.562 39.6646C299.556 34.6758 296.507 28.5774 290.52 28.8397C286.132 29.032 283.566 32.6517 279.859 34.3253C277.254 35.5011 274.431 36.2256 271.565 36.4962C270.201 36.625 268.931 36.2044 267.833 37.2393Z" fill="#FFB641"/>
<path d="M304.889 9.18687C304.889 9.18687 305.23 13.8564 302.963 15.9714C300.697 18.0865 304.474 21.4033 308.957 18.2787C309.601 17.8299 310.253 17.5448 310.898 17.3854C311.729 17.1805 312.312 16.4719 312.312 15.6535C312.312 14.8665 311.775 14.1663 310.984 13.9433C310.458 13.795 309.791 13.7064 309.008 13.8083C309.008 13.8083 311.718 11.5529 311.049 8.94305C310.832 8.09949 309.783 7.74841 309.038 8.24696C308.074 8.89141 306.579 9.57092 304.889 9.18687Z" fill="#FFB641"/>
<path d="M290.48 28.0535C287.453 28.1862 285.261 29.7809 283.141 31.3233C282.362 31.8897 281.557 32.4752 280.734 32.9657C280.348 33.196 280.23 33.6815 280.471 34.0503C280.712 34.4192 281.221 34.5314 281.608 34.3012C282.496 33.7719 283.332 33.1637 284.141 32.5755C286.147 31.1155 288.043 29.7364 290.555 29.6263C293.129 29.5133 294.788 30.7209 295.726 31.7537C297.505 33.7111 298.299 36.7587 297.749 39.5178C296.578 45.3952 290.194 48.5665 284.781 48.5665C275.262 48.5665 270.269 43.2845 268.14 40.136C267.642 39.3993 267.756 38.4167 268.41 37.7996C268.935 37.305 269.47 37.2906 270.446 37.3067C270.827 37.3131 271.221 37.3196 271.644 37.2797C274.022 37.0552 276.339 36.5315 278.531 35.723C278.956 35.5662 279.167 35.1104 279.003 34.7049C278.838 34.2993 278.361 34.0976 277.936 34.2544C275.883 35.0117 273.712 35.5025 271.482 35.7129C271.154 35.7439 270.824 35.7382 270.475 35.7325C269.453 35.7156 268.295 35.6961 267.251 36.6793C266.044 37.8173 265.835 39.6301 266.754 40.9896C267.83 42.581 269.73 44.8749 272.67 46.7659C276.152 49.0053 280.227 50.1409 284.781 50.1409C288.052 50.1409 291.319 49.1754 293.98 47.4222C296.897 45.5 298.761 42.8684 299.37 39.8119C300.01 36.5976 299.069 33.0297 296.972 30.7223C295.284 28.8642 293.04 27.9417 290.48 28.0535Z" fill="black"/>
<path d="M301.502 12.4809L301.105 10.8783C301.001 10.4552 300.556 10.1934 300.113 10.2932C299.67 10.3932 299.395 10.8171 299.5 11.2402C299.5 11.2402 299.896 12.8414 299.897 12.8428C299.999 13.2585 300.454 13.5259 300.889 13.428C301.332 13.3281 301.607 12.9041 301.502 12.4809Z" fill="black"/>
<path d="M311.215 13.1878C311.066 13.1455 310.914 13.1095 310.76 13.0799C311.525 12.0413 312.291 10.4856 311.847 8.75518C311.498 7.39438 309.751 6.80598 308.562 7.60168C307.942 8.01637 306.974 8.51062 305.882 8.51062C305.715 8.51062 305.549 8.49771 305.385 8.47504C303.939 6.38751 301.98 4.63858 299.699 3.4051C297.236 2.07348 294.439 1.36963 291.61 1.36963C291.539 1.36963 291.467 1.37005 291.396 1.37099C287.035 1.42484 282.944 3.08623 279.877 6.04933C276.807 9.01495 275.116 12.9443 275.116 17.1135C275.116 20.4984 276.225 23.7239 278.322 26.4414C278.921 27.2174 278.874 28.2908 278.209 28.9937C277.562 29.6788 276.671 30.0262 275.561 30.0262C273.69 30.0262 271.256 29.0781 268.328 27.2081C267.475 26.6637 266.487 26.3759 265.471 26.3759C262.915 26.3759 260.787 28.1302 260.409 30.5473C259.709 35.023 259.305 43.3837 264.462 49.0943C268.066 53.0852 273.742 55.1087 281.33 55.1087H288.918C293.732 55.1087 297.924 54.1992 301.378 52.4057C304.54 50.764 307.03 48.3659 308.579 45.4708C311.754 39.5387 310.842 32.0501 306.199 25.9272C305.908 25.5437 305.88 25.0373 306.125 24.6055C306.981 23.0994 307.566 21.4822 307.869 19.7925C308.399 19.5663 308.926 19.2728 309.441 18.9139C309.967 18.5474 310.526 18.2893 311.102 18.1469C312.299 17.8516 313.134 16.826 313.134 15.653C313.134 14.5202 312.345 13.5065 311.215 13.1878ZM306.083 20.294C305.785 21.537 305.314 22.7306 304.675 23.8552C304.133 24.8094 304.207 25.9849 304.863 26.8501C309.14 32.4915 310.001 39.352 307.11 44.7547C305.693 47.4032 303.499 49.5122 300.59 51.0227C297.38 52.6894 293.453 53.5343 288.918 53.5343H281.33C274.243 53.5343 268.988 51.6947 265.712 48.0664C263.683 45.8194 260.507 40.5856 262.04 30.7798C262.296 29.1403 263.739 27.9504 265.471 27.9504C266.159 27.9504 266.83 28.1463 267.41 28.5168C270.615 30.563 273.357 31.6006 275.561 31.6006C277.135 31.6006 278.474 31.0637 279.434 30.0481C280.621 28.7924 280.712 26.8829 279.65 25.5076C277.763 23.0628 276.766 20.16 276.766 17.1135C276.766 13.3612 278.287 9.82482 281.05 7.15571C283.811 4.48891 287.493 2.99366 291.417 2.94517C296.547 2.87999 301.269 5.31399 304.072 9.43311C304.072 9.43447 304.072 9.43584 304.072 9.4372C304.101 10.1949 304.06 10.9595 303.952 11.7107C303.787 12.8842 303.38 14.4781 302.384 15.4079C301.572 16.1655 301.216 17.286 301.655 18.3145C302.241 19.6867 303.851 20.345 305.322 20.345C305.576 20.3451 305.832 20.3273 306.083 20.294ZM310.689 16.6228C309.91 16.8152 309.163 17.1583 308.468 17.6425C307.836 18.0827 307.256 18.3574 306.745 18.526C305.848 18.8224 304.78 18.9094 303.922 18.4534C303.549 18.2548 303.297 17.9872 303.183 17.7203C302.967 17.2145 303.257 16.7959 303.538 16.5337C303.539 16.5326 303.54 16.5316 303.541 16.5305C304.561 15.581 305.115 14.2291 305.403 12.9203C305.403 12.9172 305.404 12.9142 305.405 12.9111C305.649 11.8312 305.717 10.7967 305.728 10.0828C306.984 10.1182 308.291 9.70506 309.509 8.89089C309.77 8.71634 310.166 8.82067 310.245 9.12967C310.785 11.2339 308.485 13.196 308.463 13.2144C308.188 13.443 308.103 13.8165 308.254 14.1332C308.405 14.4499 308.755 14.6348 309.117 14.5878C309.679 14.5148 310.232 14.5522 310.748 14.6978C311.752 14.9809 311.677 16.3788 310.689 16.6228Z" fill="black"/>
<path d="M175.534 27.6645C175.054 27.0314 175.013 26.1933 175.404 25.5063C176.617 23.37 177.301 20.9201 177.288 18.3167C177.247 10.0418 170.079 3.32692 161.41 3.43388C152.85 3.53947 145.944 10.1948 145.944 18.3893C145.944 21.7059 147.075 24.7703 148.99 27.2504C149.817 28.3228 149.76 29.8077 148.825 30.7967C147.405 32.2986 144.348 33.2731 137.872 29.1384C137.162 28.6849 136.328 28.439 135.474 28.439C133.344 28.439 131.542 29.9293 131.228 31.9394C130.081 39.2771 129.934 55.5973 151.333 55.5973H158.922C178.992 55.5973 184.338 39.2756 175.534 27.6645Z" fill="#FFDE76"/>
<path d="M148.824 30.7963C148.405 31.2402 147.842 31.638 147.09 31.8714C149.702 32.4707 151.234 31.737 152.123 30.7963C153.058 29.8072 153.116 28.3224 152.288 27.2499C150.374 24.7698 149.243 21.7054 149.243 18.3888C149.243 10.6626 155.382 4.30576 163.258 3.51573C162.651 3.45454 162.034 3.42568 161.409 3.43334C152.849 3.53903 145.944 10.1943 145.944 18.3888C145.944 21.7054 147.075 24.7697 148.989 27.2499C149.817 28.3224 149.759 29.8073 148.824 30.7963Z" fill="#FFB641"/>
<path d="M134.526 31.9388C134.754 30.48 135.767 29.2957 137.119 28.7553C136.599 28.5493 136.041 28.4385 135.473 28.4385C133.344 28.4385 131.541 29.9288 131.227 31.9389C130.08 39.2764 129.934 55.5966 151.333 55.5966H154.632C133.233 55.5966 133.379 39.2764 134.526 31.9388Z" fill="#FFB641"/>
<path d="M137.833 38.5142C136.898 39.3961 136.736 40.783 137.449 41.8375C139.531 44.9171 144.746 50.6284 154.783 50.6284C160.896 50.6284 167.358 46.98 168.562 40.9395C169.556 35.9507 166.507 29.8523 160.52 30.1146C156.132 30.3069 153.566 33.9266 149.859 35.6002C147.254 36.776 144.431 37.5005 141.565 37.7711C140.201 37.8999 138.931 37.4793 137.833 38.5142Z" fill="#FFB641"/>
<path d="M174.889 10.4618C174.889 10.4618 175.23 15.1313 172.963 17.2463C170.697 19.3614 174.474 22.6782 178.957 19.5537C179.601 19.1049 180.253 18.8197 180.898 18.6604C181.729 18.4554 182.312 17.7468 182.312 16.9284C182.312 16.1414 181.775 15.4413 180.984 15.2182C180.458 15.0699 179.791 14.9813 179.008 15.0832C179.008 15.0832 181.718 12.8278 181.049 10.218C180.832 9.3744 179.783 9.02331 179.038 9.52186C178.074 10.1663 176.579 10.8458 174.889 10.4618Z" fill="#FFB641"/>
<path d="M160.48 29.3284C157.453 29.4611 155.261 31.0558 153.141 32.5982C152.362 33.1646 151.557 33.7501 150.734 34.2406C150.348 34.4709 150.23 34.9564 150.471 35.3253C150.712 35.6941 151.221 35.8063 151.608 35.5761C152.496 35.0468 153.332 34.4386 154.141 33.8504C156.147 32.3904 158.043 31.0113 160.555 30.9012C163.129 30.7882 164.788 31.9958 165.726 33.0286C167.505 34.986 168.299 38.0336 167.749 40.7927C166.578 46.6701 160.194 49.8414 154.781 49.8414C145.262 49.8414 140.269 44.5595 138.14 41.4109C137.642 40.6742 137.756 39.6917 138.41 39.0745C138.935 38.5799 139.47 38.5656 140.446 38.5816C140.827 38.588 141.221 38.5945 141.644 38.5546C144.022 38.3301 146.339 37.8064 148.531 36.9979C148.956 36.8411 149.167 36.3853 149.003 35.9798C148.838 35.5742 148.361 35.3725 147.936 35.5293C145.883 36.2866 143.712 36.7774 141.482 36.9878C141.154 37.0188 140.824 37.0131 140.475 37.0074C139.453 36.9905 138.295 36.971 137.251 37.9542C136.044 39.0922 135.835 40.905 136.754 42.2645C137.83 43.8559 139.73 46.1498 142.67 48.0408C146.152 50.2802 150.227 51.4158 154.781 51.4158C158.052 51.4158 161.319 50.4503 163.98 48.6971C166.897 46.7749 168.761 44.1433 169.37 41.0868C170.01 37.8725 169.069 34.3046 166.972 31.9972C165.284 30.1391 163.04 29.2166 160.48 29.3284Z" fill="black"/>
<path d="M171.502 13.7553L171.105 12.1527C171.001 11.7296 170.556 11.4679 170.113 11.5676C169.67 11.6676 169.395 12.0915 169.5 12.5146C169.5 12.5146 169.896 14.1158 169.896 14.1172C169.999 14.5329 170.454 14.8003 170.889 14.7024C171.332 14.6025 171.607 14.1785 171.502 13.7553Z" fill="black"/>
<path d="M181.215 14.4627C181.066 14.4204 180.914 14.3844 180.76 14.3548C181.525 13.3162 182.291 11.7605 181.847 10.0301C181.498 8.66929 179.751 8.08089 178.562 8.87658C177.942 9.29128 176.974 9.78553 175.882 9.78553C175.715 9.78553 175.549 9.77262 175.385 9.74995C173.939 7.66242 171.98 5.91348 169.699 4.68C167.236 3.34839 164.439 2.64453 161.61 2.64453C161.539 2.64453 161.467 2.64495 161.396 2.6459C157.035 2.69974 152.944 4.36114 149.877 7.32424C146.807 10.2899 145.116 14.2192 145.116 18.3884C145.116 21.7733 146.225 24.9988 148.322 27.7163C148.921 28.4923 148.874 29.5657 148.209 30.2686C147.562 30.9537 146.671 31.3011 145.561 31.3011C143.69 31.3011 141.256 30.353 138.328 28.483C137.475 27.9386 136.487 27.6508 135.471 27.6508C132.915 27.6508 130.787 29.4051 130.409 31.8222C129.709 36.2979 129.305 44.6586 134.462 50.3692C138.066 54.3601 143.742 56.3836 151.33 56.3836H158.918C163.732 56.3836 167.924 55.4741 171.378 53.6806C174.54 52.0389 177.03 49.6408 178.579 46.7457C181.754 40.8136 180.842 33.325 176.199 27.2021C175.908 26.8186 175.88 26.3122 176.125 25.8804C176.981 24.3743 177.566 22.7571 177.869 21.0674C178.399 20.8412 178.926 20.5477 179.441 20.1888C179.967 19.8223 180.526 19.5643 181.102 19.4218C182.299 19.1265 183.134 18.1009 183.134 16.9279C183.134 15.7951 182.345 14.7814 181.215 14.4627ZM176.083 21.5689C175.785 22.8119 175.314 24.0055 174.675 25.1301C174.133 26.0843 174.207 27.2599 174.863 28.125C179.14 33.7664 180.001 40.6269 177.11 46.0296C175.693 48.6781 173.499 50.7871 170.59 52.2976C167.38 53.9643 163.453 54.8092 158.918 54.8092H151.33C144.243 54.8092 138.988 52.9696 135.712 49.3414C133.683 47.0943 130.507 41.8605 132.04 32.0547C132.296 30.4152 133.739 29.2253 135.471 29.2253C136.159 29.2253 136.83 29.4212 137.41 29.7917C140.615 31.838 143.357 32.8755 145.561 32.8755C147.135 32.8755 148.474 32.3386 149.434 31.323C150.621 30.0673 150.712 28.1578 149.65 26.7825C147.763 24.3377 146.766 21.4349 146.766 18.3884C146.766 14.6361 148.287 11.0997 151.05 8.43061C153.811 5.76381 157.493 4.26856 161.417 4.22007C166.547 4.15489 171.269 6.58889 174.072 10.708C174.072 10.7094 174.072 10.7107 174.072 10.7121C174.101 11.4698 174.06 12.2344 173.952 12.9856C173.787 14.1591 173.38 15.753 172.384 16.6828C171.572 17.4404 171.216 18.5609 171.655 19.5894C172.241 20.9616 173.851 21.6199 175.322 21.6199C175.576 21.62 175.832 21.6022 176.083 21.5689ZM180.689 17.8977C179.91 18.0901 179.163 18.4332 178.468 18.9174C177.836 19.3576 177.256 19.6323 176.745 19.8009C175.848 20.0973 174.78 20.1844 173.922 19.7283C173.549 19.5297 173.297 19.2621 173.183 18.9952C172.967 18.4894 173.257 18.0708 173.538 17.8086C173.539 17.8076 173.54 17.8065 173.541 17.8055C174.561 16.8559 175.115 15.504 175.403 14.1952C175.403 14.1921 175.404 14.1891 175.405 14.186C175.649 13.1061 175.717 12.0716 175.728 11.3577C176.984 11.3931 178.291 10.98 179.509 10.1658C179.77 9.99125 180.166 10.0956 180.245 10.4046C180.785 12.5088 178.485 14.4709 178.463 14.4893C178.188 14.7179 178.103 15.0914 178.254 15.4081C178.405 15.7248 178.755 15.9097 179.117 15.8627C179.679 15.7897 180.232 15.8271 180.748 15.9727C181.752 16.2558 181.677 17.6537 180.689 17.8977Z" fill="black"/>
<path d="M370.534 25.7558C370.054 25.1227 370.013 24.2846 370.404 23.5976C371.617 21.4613 372.301 19.0114 372.288 16.408C372.247 8.13309 365.079 1.41823 356.41 1.52519C347.85 1.63077 340.944 8.28612 340.944 16.4806C340.944 19.7972 342.075 22.8616 343.99 25.3417C344.817 26.4141 344.76 27.899 343.825 28.888C342.405 30.3899 339.348 31.3644 332.872 27.2297C332.162 26.7762 331.328 26.5303 330.474 26.5303C328.344 26.5303 326.542 28.0206 326.228 30.0307C325.081 37.3684 324.934 53.6886 346.333 53.6886H353.922C373.992 53.6886 379.338 37.3669 370.534 25.7558Z" fill="#FFDE76"/>
<path d="M343.824 28.8876C343.405 29.3315 342.842 29.7293 342.09 29.9627C344.702 30.562 346.234 29.8283 347.123 28.8876C348.058 27.8985 348.116 26.4137 347.288 25.3412C345.374 22.8612 344.243 19.7967 344.243 16.4801C344.243 8.75392 350.382 2.39707 358.258 1.60704C357.651 1.54585 357.034 1.51699 356.409 1.52465C347.849 1.63034 340.944 8.28559 340.944 16.4801C340.944 19.7967 342.075 22.8611 343.989 25.3412C344.817 26.4137 344.759 27.8986 343.824 28.8876Z" fill="#FFB641"/>
<path d="M329.526 30.0301C329.754 28.5713 330.767 27.387 332.119 26.8467C331.599 26.6406 331.041 26.5298 330.473 26.5298C328.344 26.5298 326.541 28.0201 326.227 30.0302C325.08 37.3678 324.934 53.6879 346.332 53.6879H349.632C328.233 53.6879 328.379 37.3678 329.526 30.0301Z" fill="#FFB641"/>
<path d="M332.833 36.6055C331.898 37.4874 331.736 38.8743 332.449 39.9288C334.531 43.0084 339.746 48.7197 349.783 48.7197C355.896 48.7197 362.358 45.0713 363.562 39.0308C364.556 34.042 361.507 27.9436 355.52 28.2059C351.132 28.3982 348.566 32.0179 344.859 33.6915C342.254 34.8673 339.431 35.5918 336.565 35.8624C335.201 35.9912 333.931 35.5706 332.833 36.6055Z" fill="#FFB641"/>
<path d="M369.889 8.55308C369.889 8.55308 370.23 13.2226 367.963 15.3376C365.697 17.4527 369.474 20.7695 373.957 17.645C374.601 17.1962 375.253 16.911 375.898 16.7516C376.729 16.5467 377.312 15.8381 377.312 15.0197C377.312 14.2327 376.775 13.5326 375.984 13.3095C375.458 13.1612 374.791 13.0726 374.008 13.1745C374.008 13.1745 376.718 10.9191 376.049 8.30926C375.832 7.4657 374.783 7.11462 374.038 7.61317C373.074 8.25762 371.579 8.93713 369.889 8.55308Z" fill="#FFB641"/>
<path d="M355.48 27.4197C352.453 27.5524 350.261 29.1471 348.141 30.6895C347.362 31.2559 346.557 31.8414 345.734 32.3319C345.348 32.5622 345.23 33.0477 345.471 33.4166C345.712 33.7854 346.221 33.8976 346.608 33.6674C347.496 33.1381 348.332 32.5299 349.141 31.9417C351.147 30.4817 353.043 29.1026 355.555 28.9925C358.129 28.8795 359.788 30.0872 360.726 31.12C362.505 33.0773 363.299 36.1249 362.749 38.884C361.578 44.7614 355.194 47.9327 349.781 47.9327C340.262 47.9327 335.269 42.6508 333.14 39.5022C332.642 38.7655 332.756 37.783 333.41 37.1658C333.935 36.6712 334.47 36.6569 335.446 36.6729C335.827 36.6793 336.221 36.6858 336.644 36.6459C339.022 36.4214 341.339 35.8977 343.531 35.0892C343.956 34.9324 344.167 34.4766 344.003 34.0711C343.838 33.6655 343.361 33.4638 342.936 33.6206C340.883 34.3779 338.712 34.8687 336.482 35.0791C336.154 35.1101 335.824 35.1044 335.475 35.0987C334.453 35.0818 333.295 35.0623 332.251 36.0455C331.044 37.1835 330.835 38.9963 331.754 40.3558C332.83 41.9472 334.73 44.2411 337.67 46.1321C341.152 48.3716 345.227 49.5071 349.781 49.5071C353.052 49.5071 356.319 48.5416 358.98 46.7885C361.897 44.8662 363.761 42.2346 364.37 39.1781C365.01 35.9638 364.069 32.3959 361.972 30.0885C360.284 28.2304 358.04 27.3079 355.48 27.4197Z" fill="black"/>
<path d="M366.502 11.8466L366.105 10.244C366.001 9.82094 365.556 9.55917 365.113 9.65888C364.67 9.75891 364.395 10.1828 364.5 10.6059C364.5 10.6059 364.896 12.2071 364.897 12.2085C364.999 12.6242 365.454 12.8916 365.889 12.7937C366.332 12.6938 366.607 12.2698 366.502 11.8466Z" fill="black"/>
<path d="M376.215 12.554C376.066 12.5117 375.914 12.4757 375.76 12.4461C376.525 11.4076 377.291 9.85185 376.847 8.12139C376.498 6.7606 374.751 6.17219 373.562 6.96789C372.942 7.38258 371.974 7.87684 370.882 7.87684C370.715 7.87684 370.549 7.86393 370.385 7.84125C368.939 5.75372 366.98 4.00479 364.699 2.77131C362.236 1.4397 359.439 0.73584 356.61 0.73584C356.539 0.73584 356.467 0.73626 356.396 0.737204C352.035 0.791048 347.944 2.45245 344.877 5.41554C341.807 8.38116 340.116 12.3105 340.116 16.4797C340.116 19.8646 341.225 23.0901 343.322 25.8076C343.921 26.5836 343.874 27.657 343.209 28.3599C342.562 29.045 341.671 29.3924 340.561 29.3924C338.69 29.3924 336.256 28.4443 333.328 26.5743C332.475 26.0299 331.487 25.7421 330.471 25.7421C327.915 25.7421 325.787 27.4964 325.409 29.9135C324.709 34.3892 324.305 42.7499 329.462 48.4605C333.066 52.4514 338.742 54.4749 346.33 54.4749H353.918C358.732 54.4749 362.924 53.5654 366.378 51.7719C369.54 50.1302 372.03 47.7321 373.579 44.837C376.754 38.9049 375.842 31.4163 371.199 25.2934C370.908 24.9099 370.88 24.4035 371.125 23.9717C371.981 22.4656 372.566 20.8484 372.869 19.1587C373.399 18.9325 373.926 18.639 374.441 18.2801C374.967 17.9137 375.526 17.6556 376.102 17.5131C377.299 17.2178 378.134 16.1922 378.134 15.0192C378.134 13.8864 377.345 12.8727 376.215 12.554ZM371.083 19.6602C370.785 20.9032 370.314 22.0968 369.675 23.2214C369.133 24.1756 369.207 25.3512 369.863 26.2163C374.14 31.8577 375.001 38.7182 372.11 44.1209C370.693 46.7694 368.499 48.8784 365.59 50.3889C362.38 52.0556 358.453 52.9005 353.918 52.9005H346.33C339.243 52.9005 333.988 51.0609 330.712 47.4327C328.683 45.1856 325.507 39.9518 327.04 30.146C327.296 28.5065 328.739 27.3166 330.471 27.3166C331.159 27.3166 331.83 27.5125 332.41 27.883C335.615 29.9293 338.357 30.9668 340.561 30.9668C342.135 30.9668 343.474 30.4299 344.434 29.4143C345.621 28.1586 345.712 26.2491 344.65 24.8738C342.763 22.429 341.766 19.5262 341.766 16.4797C341.766 12.7274 343.287 9.19103 346.05 6.52192C348.811 3.85512 352.493 2.35987 356.417 2.31138C361.547 2.2462 366.269 4.6802 369.072 8.79932C369.072 8.80068 369.072 8.80205 369.072 8.80341C369.101 9.56111 369.06 10.3257 368.952 11.0769C368.787 12.2504 368.38 13.8443 367.384 14.7741C366.572 15.5317 366.216 16.6523 366.655 17.6807C367.241 19.0529 368.851 19.7112 370.322 19.7112C370.576 19.7113 370.832 19.6935 371.083 19.6602ZM375.689 15.989C374.91 16.1814 374.163 16.5245 373.468 17.0087C372.836 17.4489 372.256 17.7236 371.745 17.8922C370.848 18.1886 369.78 18.2757 368.922 17.8196C368.549 17.621 368.297 17.3534 368.183 17.0865C367.967 16.5807 368.257 16.1621 368.538 15.8999C368.539 15.8989 368.54 15.8978 368.541 15.8968C369.561 14.9472 370.115 13.5953 370.403 12.2865C370.403 12.2834 370.404 12.2804 370.405 12.2773C370.649 11.1974 370.717 10.1629 370.728 9.44902C371.984 9.48439 373.291 9.07127 374.509 8.2571C374.77 8.08255 375.166 8.18688 375.245 8.49588C375.785 10.6001 373.485 12.5622 373.463 12.5806C373.188 12.8092 373.103 13.1827 373.254 13.4994C373.405 13.8162 373.755 14.001 374.117 13.954C374.679 13.881 375.232 13.9184 375.748 14.064C376.752 14.3471 376.677 15.745 375.689 15.989Z" fill="black"/>
</svg>
