<svg width="181" height="56" viewBox="0 0 181 56" fill="none" xmlns="http://www.w3.org/2000/svg">
<rect y="15" width="19" height="19" fill="#FDDF6D"/>
<circle cx="174.5" cy="34.5" r="6.5" fill="#FDDF6D"/>
<path d="M108.381 15.057L83.3023 47.1846L68.0752 21.1051L108.381 15.057Z" fill="#FDDF6D"/>
<path d="M13.52 33.36V24.36H15.76C16.5333 24.36 17.18 24.4733 17.7 24.7C18.2333 24.9133 18.66 25.2267 18.98 25.64C19.3 26.0533 19.5267 26.5533 19.66 27.14C19.8067 27.7133 19.88 28.36 19.88 29.08C19.88 29.8667 19.78 30.5333 19.58 31.08C19.38 31.6267 19.1133 32.0733 18.78 32.42C18.4467 32.7533 18.0667 32.9933 17.64 33.14C17.2133 33.2867 16.7733 33.36 16.32 33.36H13.52ZM10.38 21.72V36H16.54C17.6333 36 18.58 35.82 19.38 35.46C20.1933 35.0867 20.8667 34.58 21.4 33.94C21.9467 33.3 22.3533 32.54 22.62 31.66C22.8867 30.78 23.02 29.82 23.02 28.78C23.02 27.5933 22.8533 26.56 22.52 25.68C22.2 24.8 21.7467 24.0667 21.16 23.48C20.5867 22.8933 19.9 22.4533 19.1 22.16C18.3133 21.8667 17.46 21.72 16.54 21.72H10.38ZM34.6042 36V25.66H31.7642V31.08C31.7642 32.1333 31.5909 32.8933 31.2442 33.36C30.8976 33.8133 30.3376 34.04 29.5642 34.04C28.8842 34.04 28.4109 33.8333 28.1442 33.42C27.8776 32.9933 27.7442 32.3533 27.7442 31.5V25.66H24.9042V32.02C24.9042 32.66 24.9576 33.2467 25.0642 33.78C25.1842 34.3 25.3842 34.7467 25.6642 35.12C25.9442 35.48 26.3242 35.76 26.8042 35.96C27.2976 36.16 27.9242 36.26 28.6842 36.26C29.2842 36.26 29.8709 36.1267 30.4442 35.86C31.0176 35.5933 31.4842 35.16 31.8442 34.56H31.9042V36H34.6042ZM43.7997 29.3H46.5797C46.5397 28.6333 46.3797 28.06 46.0997 27.58C45.8197 27.0867 45.453 26.68 44.9997 26.36C44.5597 26.0267 44.053 25.78 43.4797 25.62C42.9197 25.46 42.333 25.38 41.7197 25.38C40.8797 25.38 40.133 25.52 39.4797 25.8C38.8264 26.08 38.273 26.4733 37.8197 26.98C37.3664 27.4733 37.0197 28.0667 36.7797 28.76C36.553 29.44 36.4397 30.18 36.4397 30.98C36.4397 31.7533 36.5664 32.4667 36.8197 33.12C37.073 33.76 37.4264 34.3133 37.8797 34.78C38.333 35.2467 38.8797 35.6133 39.5197 35.88C40.173 36.1333 40.8864 36.26 41.6597 36.26C43.033 36.26 44.1597 35.9 45.0397 35.18C45.9197 34.46 46.453 33.4133 46.6397 32.04H43.8997C43.8064 32.68 43.573 33.1933 43.1997 33.58C42.8397 33.9533 42.3197 34.14 41.6397 34.14C41.1997 34.14 40.8264 34.04 40.5197 33.84C40.213 33.64 39.9664 33.3867 39.7797 33.08C39.6064 32.76 39.4797 32.4067 39.3997 32.02C39.3197 31.6333 39.2797 31.2533 39.2797 30.88C39.2797 30.4933 39.3197 30.1067 39.3997 29.72C39.4797 29.32 39.613 28.96 39.7997 28.64C39.9997 28.3067 40.253 28.04 40.5597 27.84C40.8664 27.6267 41.2464 27.52 41.6997 27.52C42.913 27.52 43.613 28.1133 43.7997 29.3ZM48.5041 21.72V36H51.3441V32.44L52.4441 31.38L55.2841 36H58.7241L54.3841 29.46L58.2841 25.66H54.9241L51.3441 29.38V21.72H48.5041ZM61.9284 32.64H59.2284C59.2551 33.3333 59.4084 33.9133 59.6884 34.38C59.9818 34.8333 60.3484 35.2 60.7884 35.48C61.2418 35.76 61.7551 35.96 62.3284 36.08C62.9018 36.2 63.4884 36.26 64.0884 36.26C64.6751 36.26 65.2484 36.2 65.8084 36.08C66.3818 35.9733 66.8884 35.78 67.3284 35.5C67.7684 35.22 68.1218 34.8533 68.3884 34.4C68.6684 33.9333 68.8084 33.36 68.8084 32.68C68.8084 32.2 68.7151 31.8 68.5284 31.48C68.3418 31.1467 68.0951 30.8733 67.7884 30.66C67.4818 30.4333 67.1284 30.2533 66.7284 30.12C66.3418 29.9867 65.9418 29.8733 65.5284 29.78C65.1284 29.6867 64.7351 29.6 64.3484 29.52C63.9618 29.44 63.6151 29.3533 63.3084 29.26C63.0151 29.1533 62.7751 29.02 62.5884 28.86C62.4018 28.7 62.3084 28.4933 62.3084 28.24C62.3084 28.0267 62.3618 27.86 62.4684 27.74C62.5751 27.6067 62.7018 27.5067 62.8484 27.44C63.0084 27.3733 63.1818 27.3333 63.3684 27.32C63.5551 27.2933 63.7284 27.28 63.8884 27.28C64.3951 27.28 64.8351 27.38 65.2084 27.58C65.5818 27.7667 65.7884 28.1333 65.8284 28.68H68.5284C68.4751 28.04 68.3084 27.5133 68.0284 27.1C67.7618 26.6733 67.4218 26.3333 67.0084 26.08C66.5951 25.8267 66.1218 25.6467 65.5884 25.54C65.0684 25.4333 64.5284 25.38 63.9684 25.38C63.4084 25.38 62.8618 25.4333 62.3284 25.54C61.7951 25.6333 61.3151 25.8067 60.8884 26.06C60.4618 26.3 60.1151 26.6333 59.8484 27.06C59.5951 27.4867 59.4684 28.0333 59.4684 28.7C59.4684 29.1533 59.5618 29.54 59.7484 29.86C59.9351 30.1667 60.1818 30.4267 60.4884 30.64C60.7951 30.84 61.1418 31.0067 61.5284 31.14C61.9284 31.26 62.3351 31.3667 62.7484 31.46C63.7618 31.6733 64.5484 31.8867 65.1084 32.1C65.6818 32.3133 65.9684 32.6333 65.9684 33.06C65.9684 33.3133 65.9084 33.5267 65.7884 33.7C65.6684 33.86 65.5151 33.9933 65.3284 34.1C65.1551 34.1933 64.9551 34.2667 64.7284 34.32C64.5151 34.36 64.3084 34.38 64.1084 34.38C63.8284 34.38 63.5551 34.3467 63.2884 34.28C63.0351 34.2133 62.8084 34.1133 62.6084 33.98C62.4084 33.8333 62.2418 33.6533 62.1084 33.44C61.9884 33.2133 61.9284 32.9467 61.9284 32.64ZM86.657 34.38L86.977 36H88.977V28.28H82.977V30.62H86.137C86.0437 31.62 85.7104 32.3867 85.137 32.92C84.577 33.44 83.777 33.7 82.737 33.7C82.0304 33.7 81.4304 33.5667 80.937 33.3C80.4437 33.02 80.0437 32.6533 79.737 32.2C79.4304 31.7467 79.2037 31.24 79.057 30.68C78.9237 30.1067 78.857 29.52 78.857 28.92C78.857 28.2933 78.9237 27.6867 79.057 27.1C79.2037 26.5133 79.4304 25.9933 79.737 25.54C80.0437 25.0733 80.4437 24.7067 80.937 24.44C81.4304 24.16 82.0304 24.02 82.737 24.02C83.497 24.02 84.1437 24.22 84.677 24.62C85.2104 25.02 85.5704 25.62 85.757 26.42H88.757C88.677 25.6067 88.457 24.8867 88.097 24.26C87.737 23.6333 87.277 23.1067 86.717 22.68C86.1704 22.2533 85.5504 21.9333 84.857 21.72C84.177 21.4933 83.4704 21.38 82.737 21.38C81.6437 21.38 80.657 21.5733 79.777 21.96C78.9104 22.3467 78.177 22.88 77.577 23.56C76.977 24.24 76.517 25.04 76.197 25.96C75.877 26.8667 75.717 27.8533 75.717 28.92C75.717 29.96 75.877 30.9333 76.197 31.84C76.517 32.7333 76.977 33.5133 77.577 34.18C78.177 34.8467 78.9104 35.3733 79.777 35.76C80.657 36.1333 81.6437 36.32 82.737 36.32C83.4304 36.32 84.117 36.18 84.797 35.9C85.477 35.6067 86.097 35.1 86.657 34.38ZM93.7328 30.84C93.7328 30.4267 93.7728 30.02 93.8528 29.62C93.9328 29.22 94.0661 28.8667 94.2528 28.56C94.4528 28.2533 94.7128 28.0067 95.0328 27.82C95.3528 27.62 95.7528 27.52 96.2328 27.52C96.7128 27.52 97.1128 27.62 97.4328 27.82C97.7661 28.0067 98.0261 28.2533 98.2128 28.56C98.4128 28.8667 98.5528 29.22 98.6328 29.62C98.7128 30.02 98.7528 30.4267 98.7528 30.84C98.7528 31.2533 98.7128 31.66 98.6328 32.06C98.5528 32.4467 98.4128 32.8 98.2128 33.12C98.0261 33.4267 97.7661 33.6733 97.4328 33.86C97.1128 34.0467 96.7128 34.14 96.2328 34.14C95.7528 34.14 95.3528 34.0467 95.0328 33.86C94.7128 33.6733 94.4528 33.4267 94.2528 33.12C94.0661 32.8 93.9328 32.4467 93.8528 32.06C93.7728 31.66 93.7328 31.2533 93.7328 30.84ZM90.8928 30.84C90.8928 31.6667 91.0195 32.4133 91.2728 33.08C91.5261 33.7467 91.8861 34.32 92.3528 34.8C92.8195 35.2667 93.3795 35.6267 94.0328 35.88C94.6861 36.1333 95.4195 36.26 96.2328 36.26C97.0461 36.26 97.7795 36.1333 98.4328 35.88C99.0995 35.6267 99.6661 35.2667 100.133 34.8C100.599 34.32 100.959 33.7467 101.213 33.08C101.466 32.4133 101.593 31.6667 101.593 30.84C101.593 30.0133 101.466 29.2667 101.213 28.6C100.959 27.92 100.599 27.3467 100.133 26.88C99.6661 26.4 99.0995 26.0333 98.4328 25.78C97.7795 25.5133 97.0461 25.38 96.2328 25.38C95.4195 25.38 94.6861 25.5133 94.0328 25.78C93.3795 26.0333 92.8195 26.4 92.3528 26.88C91.8861 27.3467 91.5261 27.92 91.2728 28.6C91.0195 29.2667 90.8928 30.0133 90.8928 30.84ZM103.439 25.66V36H106.279V30.58C106.279 29.5267 106.453 28.7733 106.799 28.32C107.146 27.8533 107.706 27.62 108.479 27.62C109.159 27.62 109.633 27.8333 109.899 28.26C110.166 28.6733 110.299 29.3067 110.299 30.16V36H113.139V29.64C113.139 29 113.079 28.42 112.959 27.9C112.853 27.3667 112.659 26.92 112.379 26.56C112.099 26.1867 111.713 25.9 111.219 25.7C110.739 25.4867 110.119 25.38 109.359 25.38C108.759 25.38 108.173 25.52 107.599 25.8C107.026 26.0667 106.559 26.5 106.199 27.1H106.139V25.66H103.439ZM122.255 29.72H117.635C117.648 29.52 117.688 29.2933 117.755 29.04C117.835 28.7867 117.962 28.5467 118.135 28.32C118.322 28.0933 118.562 27.9067 118.855 27.76C119.162 27.6 119.542 27.52 119.995 27.52C120.688 27.52 121.202 27.7067 121.535 28.08C121.882 28.4533 122.122 29 122.255 29.72ZM117.635 31.52H125.095C125.148 30.72 125.082 29.9533 124.895 29.22C124.708 28.4867 124.402 27.8333 123.975 27.26C123.562 26.6867 123.028 26.2333 122.375 25.9C121.722 25.5533 120.955 25.38 120.075 25.38C119.288 25.38 118.568 25.52 117.915 25.8C117.275 26.08 116.722 26.4667 116.255 26.96C115.788 27.44 115.428 28.0133 115.175 28.68C114.922 29.3467 114.795 30.0667 114.795 30.84C114.795 31.64 114.915 32.3733 115.155 33.04C115.408 33.7067 115.762 34.28 116.215 34.76C116.668 35.24 117.222 35.6133 117.875 35.88C118.528 36.1333 119.262 36.26 120.075 36.26C121.248 36.26 122.248 35.9933 123.075 35.46C123.902 34.9267 124.515 34.04 124.915 32.8H122.415C122.322 33.12 122.068 33.4267 121.655 33.72C121.242 34 120.748 34.14 120.175 34.14C119.375 34.14 118.762 33.9333 118.335 33.52C117.908 33.1067 117.675 32.44 117.635 31.52ZM132.646 21.72V36H135.786V29.84H141.566V36H144.706V21.72H141.566V27.2H135.786V21.72H132.646ZM147.05 28.84C147.09 28.1733 147.257 27.62 147.55 27.18C147.843 26.74 148.217 26.3867 148.67 26.12C149.123 25.8533 149.63 25.6667 150.19 25.56C150.763 25.44 151.337 25.38 151.91 25.38C152.43 25.38 152.957 25.42 153.49 25.5C154.023 25.5667 154.51 25.7067 154.95 25.92C155.39 26.1333 155.75 26.4333 156.03 26.82C156.31 27.1933 156.45 27.6933 156.45 28.32V33.7C156.45 34.1667 156.477 34.6133 156.53 35.04C156.583 35.4667 156.677 35.7867 156.81 36H153.93C153.877 35.84 153.83 35.68 153.79 35.52C153.763 35.3467 153.743 35.1733 153.73 35C153.277 35.4667 152.743 35.7933 152.13 35.98C151.517 36.1667 150.89 36.26 150.25 36.26C149.757 36.26 149.297 36.2 148.87 36.08C148.443 35.96 148.07 35.7733 147.75 35.52C147.43 35.2667 147.177 34.9467 146.99 34.56C146.817 34.1733 146.73 33.7133 146.73 33.18C146.73 32.5933 146.83 32.1133 147.03 31.74C147.243 31.3533 147.51 31.0467 147.83 30.82C148.163 30.5933 148.537 30.4267 148.95 30.32C149.377 30.2 149.803 30.1067 150.23 30.04C150.657 29.9733 151.077 29.92 151.49 29.88C151.903 29.84 152.27 29.78 152.59 29.7C152.91 29.62 153.163 29.5067 153.35 29.36C153.537 29.2 153.623 28.9733 153.61 28.68C153.61 28.3733 153.557 28.1333 153.45 27.96C153.357 27.7733 153.223 27.6333 153.05 27.54C152.89 27.4333 152.697 27.3667 152.47 27.34C152.257 27.3 152.023 27.28 151.77 27.28C151.21 27.28 150.77 27.4 150.45 27.64C150.13 27.88 149.943 28.28 149.89 28.84H147.05ZM153.61 30.94C153.49 31.0467 153.337 31.1333 153.15 31.2C152.977 31.2533 152.783 31.3 152.57 31.34C152.37 31.38 152.157 31.4133 151.93 31.44C151.703 31.4667 151.477 31.5 151.25 31.54C151.037 31.58 150.823 31.6333 150.61 31.7C150.41 31.7667 150.23 31.86 150.07 31.98C149.923 32.0867 149.803 32.2267 149.71 32.4C149.617 32.5733 149.57 32.7933 149.57 33.06C149.57 33.3133 149.617 33.5267 149.71 33.7C149.803 33.8733 149.93 34.0133 150.09 34.12C150.25 34.2133 150.437 34.28 150.65 34.32C150.863 34.36 151.083 34.38 151.31 34.38C151.87 34.38 152.303 34.2867 152.61 34.1C152.917 33.9133 153.143 33.6933 153.29 33.44C153.437 33.1733 153.523 32.9067 153.55 32.64C153.59 32.3733 153.61 32.16 153.61 32V30.94ZM158.654 25.66V36H161.494V31.34C161.494 30.8733 161.541 30.44 161.634 30.04C161.728 29.64 161.881 29.2933 162.094 29C162.321 28.6933 162.614 28.4533 162.974 28.28C163.334 28.1067 163.774 28.02 164.294 28.02C164.468 28.02 164.648 28.0333 164.834 28.06C165.021 28.0733 165.181 28.0933 165.314 28.12V25.48C165.088 25.4133 164.881 25.38 164.694 25.38C164.334 25.38 163.988 25.4333 163.654 25.54C163.321 25.6467 163.008 25.8 162.714 26C162.421 26.1867 162.161 26.42 161.934 26.7C161.708 26.9667 161.528 27.26 161.394 27.58H161.354V25.66H158.654ZM173.416 30.8C173.416 31.2267 173.376 31.64 173.296 32.04C173.216 32.44 173.083 32.8 172.896 33.12C172.709 33.4267 172.456 33.6733 172.136 33.86C171.829 34.0467 171.443 34.14 170.976 34.14C170.536 34.14 170.156 34.0467 169.836 33.86C169.529 33.66 169.269 33.4067 169.056 33.1C168.856 32.78 168.709 32.42 168.616 32.02C168.523 31.62 168.476 31.22 168.476 30.82C168.476 30.3933 168.516 29.9867 168.596 29.6C168.689 29.2 168.829 28.8467 169.016 28.54C169.216 28.2333 169.476 27.9867 169.796 27.8C170.116 27.6133 170.509 27.52 170.976 27.52C171.443 27.52 171.829 27.6133 172.136 27.8C172.443 27.9867 172.689 28.2333 172.876 28.54C173.076 28.8333 173.216 29.18 173.296 29.58C173.376 29.9667 173.416 30.3733 173.416 30.8ZM173.456 34.68V36H176.156V21.72H173.316V26.92H173.276C172.956 26.4133 172.516 26.0333 171.956 25.78C171.409 25.5133 170.829 25.38 170.216 25.38C169.456 25.38 168.789 25.5333 168.216 25.84C167.643 26.1333 167.163 26.5267 166.776 27.02C166.403 27.5133 166.116 28.0867 165.916 28.74C165.729 29.38 165.636 30.0467 165.636 30.74C165.636 31.46 165.729 32.1533 165.916 32.82C166.116 33.4867 166.403 34.08 166.776 34.6C167.163 35.1067 167.649 35.5133 168.236 35.82C168.823 36.1133 169.503 36.26 170.276 36.26C170.956 36.26 171.563 36.14 172.096 35.9C172.643 35.6467 173.083 35.24 173.416 34.68H173.456Z" fill="black"/>
</svg>
