<svg width="19" height="15" viewBox="0 0 19 15" fill="none" xmlns="http://www.w3.org/2000/svg">
<path d="M0.219231 8.23078C0.0730769 8.08463 0 7.8654 0 7.71924C0 7.57309 0.0730769 7.35386 0.219231 7.20771L1.24231 6.18463C1.53462 5.89232 1.97308 5.89232 2.26538 6.18463L2.33846 6.25771L6.35769 10.5692C6.50385 10.7154 6.72308 10.7154 6.86923 10.5692L16.6615 0.411553H16.7346C17.0269 0.119245 17.4654 0.119245 17.7577 0.411553L18.7808 1.43463C19.0731 1.72694 19.0731 2.1654 18.7808 2.45771L7.08846 14.5885C6.94231 14.7346 6.79615 14.8077 6.57692 14.8077C6.35769 14.8077 6.21154 14.7346 6.06538 14.5885L0.365385 8.45001L0.219231 8.23078Z" fill="#5CB85C"/>
</svg>
