<svg width="75" height="75" fill="none" xmlns="http://www.w3.org/2000/svg"><path d="M37.5 60.765c16.78 0 30.383-13.602 30.383-30.382S54.28 0 37.5 0 7.117 13.603 7.117 30.383 20.72 60.765 37.5 60.765z" fill="#FDDF6D"/><path d="M44.01 56.28c-16.779 0-30.382-13.603-30.382-30.383 0-8.965 3.884-17.021 10.06-22.582-9.837 5.029-16.57 15.262-16.57 27.067 0 16.78 13.602 30.383 30.382 30.383 7.815 0 14.94-2.952 20.323-7.8a30.253 30.253 0 01-13.812 3.315z" fill="#FCC56B"/><path d="M27.399 28.375a13.629 13.629 0 015.404-1.111c1.63 0 3.194.286 4.645.81a8.814 8.814 0 10-10.049.301zM51.89 28.222a13.638 13.638 0 015.031-.96c1.778 0 3.474.343 5.032.96a8.814 8.814 0 10-10.064 0z" fill="#fff"/><path d="M26.75 32.587a4.086 4.086 0 00-4.085 4.086h8.17a4.085 4.085 0 00-4.085-4.086zM60.08 32.587a4.086 4.086 0 00-4.086 4.086h8.17a4.086 4.086 0 00-4.085-4.086z" fill="#F9A880"/><path d="M33.688 24.8a3.812 3.812 0 100-7.624 3.812 3.812 0 000 7.623z" fill="#7F184C"/><path d="M34.77 21.101a1.648 1.648 0 100-3.296 1.648 1.648 0 000 3.296z" fill="#fff"/><path d="M58.408 24.8a3.812 3.812 0 100-7.624 3.812 3.812 0 000 7.623z" fill="#7F184C"/><path d="M59.491 21.101a1.648 1.648 0 100-3.296 1.648 1.648 0 000 3.296z" fill="#fff"/><path d="M44.504 51.32c-6.792 0-12.299-5.506-12.299-12.298h24.597c0 6.792-5.506 12.299-12.298 12.299z" fill="#7F184C"/><path d="M35.206 39.022v1.92c0 .81.656 1.466 1.465 1.466h15.664c.81 0 1.466-.657 1.466-1.466v-1.92H35.206z" fill="#F2F2F2"/><path d="M51.55 71.114a2.645 2.645 0 01-2.645-2.645V49.738l-5.29-3.718h6.938a3.642 3.642 0 013.642 3.642v18.807a2.645 2.645 0 01-2.645 2.645z" fill="#FC4C59"/><path d="M51.55 64.468a2.645 2.645 0 01-2.645-2.646v6.647a2.645 2.645 0 005.29 0v-6.647a2.645 2.645 0 01-2.645 2.645z" fill="#BC3B4A"/><path d="M46.26 75a2.645 2.645 0 01-2.646-2.645V49.738l-5.29-3.718h6.939a3.642 3.642 0 013.642 3.642v22.693A2.645 2.645 0 0146.259 75z" fill="#85E266"/><path d="M46.26 68.353a2.645 2.645 0 01-2.646-2.645v6.647a2.645 2.645 0 005.29 0v-6.647a2.645 2.645 0 01-2.645 2.645z" fill="#50C950"/><path d="M40.97 71.114a2.645 2.645 0 01-2.646-2.645V52.652c0-1.861-.928-3.412-2.273-4.697l-1.62-1.935h5.542a3.642 3.642 0 013.641 3.642v18.807a2.646 2.646 0 01-2.645 2.645z" fill="#3FA9F5"/><path d="M40.969 64.468a2.645 2.645 0 01-2.645-2.646v6.647a2.645 2.645 0 005.29 0v-6.647a2.645 2.645 0 01-2.645 2.645z" fill="#3784F4"/><path d="M48.633 10c.533-1.883-1.768-4.183-5.14-5.137-3.371-.954-6.537-.201-7.07 1.681-.532 1.883 1.769 4.183 5.14 5.137 3.372.955 6.538.202 7.07-1.681z" fill="#FCEB88"/></svg>