<svg width="62" height="62" fill="none" xmlns="http://www.w3.org/2000/svg"><g clip-path="url(#clip0)"><path d="M59.933 23.767a7.906 7.906 0 01-2.066 5.167l-2.232.238-24.242 2.52-26.225-2.758a7.75 7.75 0 01-3.1-6.2c0-4.887 10.157-7.915 11.263-11.728.07-.217.105-.444.103-.672 0-.93-1.519-3.058-1.973-3.575a.327.327 0 01.34-.537c1.84.6 5.766 3.39 5.766 6.179 0 2.025-1.973 3.059-2.066 5.032a3.24 3.24 0 003.379 3.234 13.163 13.163 0 003.244-.444C28.707 18.436 31 11.688 31 7.234c.002-.09-.001-.179-.01-.268-.144-2.49-2.263-4.578-3.017-5.446a.285.285 0 01.33-.454c2.708 1.27 8.898 5.29 8.898 13.402 0 4.774 1.766 6.902 4.474 7.191.23.03.46.044.692.042 2.284 0 3.12-2.5 3.844-5.084a22.34 22.34 0 011.323-3.927.565.565 0 011.053.197c1.116 8.142 11.346 4.04 11.346 10.88z" fill="#FFB301"/><path d="M56.834 25.142a7.67 7.67 0 01-1.2 4.03l-24.241 2.52-26.225-2.758a7.75 7.75 0 01-3.1-6.2c0-4.887 10.157-7.915 11.263-11.728a4.625 4.625 0 011.137 2.77c0 2.024-1.974 3.058-2.067 5.031a3.242 3.242 0 003.379 3.235 11.857 11.857 0 006.344-1.819C28.707 18.436 31 11.688 31 7.234c.002-.09-.001-.179-.01-.268a13.782 13.782 0 013.11 8.876c0 5.166 2.067 7.233 5.167 7.233a2.79 2.79 0 002.408-1.416c.23.03.46.044.692.042 2.284 0 3.12-2.501 3.844-5.084 2.604 4.99 10.623 2.48 10.623 8.525z" fill="#FEC108"/><path d="M51.75 31.693l-.528-.01L11.367 31C9.074 29.016 7.42 26 8.381 23.013c.067-.246.157-.484.269-.713a1.488 1.488 0 011.033-.981c.94-.114 2.305 1.518 3.08 1.994a12.247 12.247 0 003.492 1.426 13.97 13.97 0 007.543-.403c.042-.01.093-.031.135-.042a17.497 17.497 0 004.608-2.356c.806-.65 1.568-1.35 2.284-2.097.43-.428.913-.799 1.436-1.106a1.46 1.46 0 01.579-.217c.3-.006.588.114.795.331 1.23 1.178 1.302 3.141 2.584 4.298a8.906 8.906 0 006.943 2.14 9.29 9.29 0 001.179-.207 7.662 7.662 0 002.438-.961c.248-.155.475-.32.713-.496a4.654 4.654 0 012.552-1.116c.942.051 1.85.362 2.625.899a6.32 6.32 0 012.015 1.633c1.746 2.386-.124 6.178-2.935 6.654z" fill="#F57C00"/><path d="M51.222 31.682l-39.855-.681C9.074 29.016 7.42 26 8.381 23.013c.64.486 1.282 1.147 1.726 1.416a12.13 12.13 0 003.493 1.426c2.55.567 5.209.413 7.677-.445.867-.291 1.71-.65 2.521-1.074.042-.01.093-.031.135-.042a17.497 17.497 0 004.608-2.356c.806-.65 1.568-1.35 2.284-2.097a.822.822 0 01.145.124c1.24 1.178 1.301 3.141 2.583 4.299a8.918 8.918 0 006.954 2.138 8.722 8.722 0 003.606-1.167c.072-.052.155-.093.228-.155a7.662 7.662 0 002.438-.961c.248-.155.475-.32.713-.496a5.24 5.24 0 012.511.899 6.506 6.506 0 012.026 1.632 4.349 4.349 0 01-.807 5.528z" fill="#FF9801"/><path d="M17.888 57.701l-2.532 3.08a.512.512 0 01-.393.186H8.03a.517.517 0 01-.393-.847l.156-.186 4.835-5.88c.373.33 1.106.227 1.84.124a2.789 2.789 0 011.808.072c.95.672.579 2.893 1.612 3.451z" fill="#37474F"/><path d="M15.5 56.668l-2.53 3.08a.55.55 0 01-.404.186H7.792l4.836-5.88c.372.33 1.106.227 1.84.124.268.92.31 2.108 1.033 2.49z" fill="#607D8B"/><path d="M58.9 33.067a27.824 27.824 0 01-9.527 20.987l-1.829-1.199A27.742 27.742 0 0055.8 33.067l-26.35-1.953 1.55-.113 27.9 2.066z" fill="#C52828"/><path d="M55.8 33.067a27.743 27.743 0 01-8.256 19.788l-3.307-2.16c-1.116-1.353-.682-2.19-2.066-1.095-.651.507-.951.816-.971 1.137-.021.351.32.733.909 1.447l2.004 5.517a27.884 27.884 0 01-14.59 3.224C14.71 60.14 3.103 47.901 3.1 33.067l26.35-1.953 26.35 1.953z" fill="#FF6F52"/><path d="M47.544 52.855a20.23 20.23 0 01-1.271 1.199l-5.074-3.317c.02-.32.32-.63.972-1.137 1.384-1.095.95-.258 2.066 1.096l3.307 2.16z" fill="#C52828"/><path d="M60.967 31a2.082 2.082 0 01-2.067 2.067H3.101a2.073 2.073 0 01-2.066-2.066 2.021 2.021 0 01.61-1.457 2.02 2.02 0 011.456-.61h55.8a2.073 2.073 0 012.066 2.067z" fill="#37474F"/><path d="M57.867 31a2.082 2.082 0 01-2.067 2.067H3.101a2.073 2.073 0 01-2.066-2.066 2.021 2.021 0 01.61-1.457 2.02 2.02 0 011.456-.61h52.7a2.073 2.073 0 012.066 2.067z" fill="#607D8B"/><path d="M53.971 60.967h-6.933a.527.527 0 01-.393-.186l-6.551-7.967a3.241 3.241 0 01.238-4.464c.218-.203.47-.367.744-.486a3.25 3.25 0 013.916.848l9.382 11.407a.522.522 0 01-.403.848z" fill="#37474F"/><path d="M51.15 60.967h-4.112a.527.527 0 01-.393-.186l-6.551-7.967a3.241 3.241 0 01.238-4.464 2.63 2.63 0 01.744-.486c.424.196.798.486 1.095.848l9.382 11.407a.522.522 0 01-.403.848z" fill="#607D8B"/><path d="M10.335 45.828a1.034 1.034 0 01-.9-.517 24.6 24.6 0 01-2.859-7.925 1.033 1.033 0 012.035-.36 22.542 22.542 0 002.62 7.262 1.034 1.034 0 01-.896 1.54zM17.567 53.697a1.03 1.03 0 01-.584-.182 25.02 25.02 0 01-3.781-3.192 1.033 1.033 0 111.484-1.438 23.063 23.063 0 003.468 2.93 1.033 1.033 0 01-.587 1.882zM58.9 34.1H3.101a3.1 3.1 0 110-6.2h55.8a3.1 3.1 0 010 6.2zM3.101 29.967a1.033 1.033 0 100 2.067h55.8a1.033 1.033 0 000-2.067H3.1z" fill="#000"/><path d="M5.168 29.967a1.03 1.03 0 01-.573-.173 8.761 8.761 0 01-3.56-7.06c0-3.274 3.36-5.557 6.613-7.765 2.335-1.588 4.753-3.23 4.753-4.635a9.568 9.568 0 00-1.711-2.882 1.373 1.373 0 01-.134-1.664 1.343 1.343 0 011.565-.55c1.844.6 6.48 3.617 6.48 7.163a5.504 5.504 0 01-1.207 3.157 3.899 3.899 0 00-.86 1.92c-.02.54.187 1.061.568 1.441.466.465 1.1.722 1.757.713 8.15-.146 11.108-7.494 11.108-12.398 0-1.954-1.618-3.753-2.488-4.718l-.283-.317a1.321 1.321 0 01-.06-1.675c.372-.5 1.044-.665 1.605-.396 2.226 1.042 9.493 5.155 9.493 14.34 0 6.2 3.111 6.2 4.133 6.2 1.528 0 2.17-1.909 2.987-4.819.3-1.248.724-2.465 1.262-3.631a1.577 1.577 0 011.679-.826 1.599 1.599 0 011.317 1.357c.485 3.551 2.873 4.299 5.638 5.167 2.68.836 5.717 1.785 5.717 5.851a8.934 8.934 0 01-2.37 5.898 1.034 1.034 0 01-1.46-1.462 6.939 6.939 0 001.763-4.436c0-2.433-1.463-3.005-4.267-3.881-2.53-.792-5.61-1.757-6.737-5.348-.193.58-.37 1.213-.552 1.866-.785 2.817-1.764 6.33-4.977 6.33-2.316 0-6.2-1.073-6.2-8.266a13.059 13.059 0 00-4.96-10.333c.52.952.804 2.015.827 3.1 0 5.719-3.5 14.291-13.139 14.466a4.554 4.554 0 01-3.271-1.343 3.98 3.98 0 01-1.157-2.97 5.676 5.676 0 011.203-2.977 3.735 3.735 0 00.864-2.01c0-1.28-1.24-2.732-2.604-3.794.305.529.489 1.119.537 1.727 0 2.499-2.75 4.367-5.661 6.345-2.673 1.819-5.705 3.876-5.705 6.055a6.696 6.696 0 002.64 5.34 1.034 1.034 0 01-.573 1.893zM12.225 6.07l.032.04-.032-.04zM55.064 62h-8.266c-.31 0-.602-.138-.798-.377l-6.82-8.295a4.15 4.15 0 01.64-5.904 4.301 4.301 0 015.964.628L55.86 60.311a1.034 1.034 0 01-.797 1.69zm-7.777-2.066h5.59l-8.687-10.57a2.224 2.224 0 00-3.085-.32 2.097 2.097 0 00-.792 1.427 2.066 2.066 0 00.466 1.55l6.508 7.913z" fill="#000"/><path d="M31 62C15.03 61.982 2.086 49.04 2.068 33.067c0-.57.462-1.033 1.033-1.033h55.8c.57 0 1.032.462 1.032 1.033a28.942 28.942 0 01-9.874 21.76 1.066 1.066 0 01-.765.253 1.033 1.033 0 01-.714-.375l-4.39-5.341a2.224 2.224 0 00-3.085-.32 2.096 2.096 0 00-.792 1.427 2.066 2.066 0 00.466 1.549l4.133 5.023a1.035 1.035 0 01-.31 1.568A28.974 28.974 0 0131 62zM4.154 34.1A26.864 26.864 0 0042.49 57.35l-3.306-4.03a4.15 4.15 0 01.639-5.904 4.302 4.302 0 015.964.628l3.7 4.5a26.868 26.868 0 008.36-18.444H4.153z" fill="#000"/><path d="M15.203 62H6.937a1.034 1.034 0 01-.799-1.69l5.683-6.907a1.04 1.04 0 01.716-.374 1.07 1.07 0 01.764.253 26.805 26.805 0 005.074 3.507 1.034 1.034 0 01.31 1.57l-2.687 3.265a1.034 1.034 0 01-.795.376zm-6.077-2.066h5.59l1.593-1.936a28.97 28.97 0 01-3.553-2.48l-3.63 4.416z" fill="#000"/></g><defs><clipPath id="clip0"><path fill="#fff" d="M0 0h62v62H0z"/></clipPath></defs></svg>