<svg width="72" height="72" fill="none" xmlns="http://www.w3.org/2000/svg"><path d="M27.633 66.203h-6.891v4.39h6.89v-4.39zM51.258 66.203h-6.891v4.39h6.89v-4.39z" fill="#8DE0A8"/><path d="M15.118 58.64v2.55a5.013 5.013 0 005.013 5.013h31.737a5.013 5.013 0 005.014-5.013v-2.55H15.117z" fill="#DC4B49"/><path d="M56.881 25.453H15.118v33.188h41.763V25.453zM56.881 6.42a5.013 5.013 0 00-5.013-5.014H20.131a5.013 5.013 0 00-5.013 5.013v19.034h41.764V6.42z" fill="#FF6F52"/><path d="M34.292 13.853H23.176a2.434 2.434 0 00-2.434 2.434v1.785c0 .986.8 1.785 1.785 1.785h2.313c.985 0 1.785-.799 1.785-1.785h7.667v-4.22z" fill="#8DE0A8"/><path d="M24.84 21.263h-2.313a3.195 3.195 0 01-3.191-3.191v-1.785a3.845 3.845 0 013.84-3.84h11.116c.777 0 1.406.629 1.406 1.406v4.219c0 .777-.63 1.406-1.406 1.406h-6.588a3.195 3.195 0 01-2.864 1.785zm-1.664-6.004a1.03 1.03 0 00-1.028 1.028v1.785c0 .209.17.379.379.379h2.313a.38.38 0 00.378-.379c0-.776.63-1.406 1.407-1.406h6.26v-1.407h-9.709z" fill="#000"/><path d="M34.642 31.592H23.526a2.434 2.434 0 00-2.434 2.434v1.785c0 .986.799 1.785 1.785 1.785h2.312c.986 0 1.785-.8 1.785-1.785h7.668v-4.22z" fill="#8DE0A8"/><path d="M25.19 39.002h-2.313a3.195 3.195 0 01-3.191-3.191v-1.785a3.845 3.845 0 013.84-3.84h11.116c.777 0 1.406.629 1.406 1.406v4.219c0 .776-.63 1.406-1.406 1.406h-6.588a3.195 3.195 0 01-2.865 1.785zm-1.664-6.004a1.03 1.03 0 00-1.028 1.028v1.785c0 .209.17.379.379.379h2.312a.38.38 0 00.38-.38c0-.776.629-1.405 1.405-1.405h6.262v-1.407h-9.71zM51.794 54.361a1.398 1.398 0 01-.54-.108 1.403 1.403 0 01-.76-1.835 1.378 1.378 0 01.518-.631 1.498 1.498 0 01.506-.21 1.394 1.394 0 011.056.21 1.408 1.408 0 01.388.388 1.384 1.384 0 01.21.506 1.417 1.417 0 01-.598 1.443 1.49 1.49 0 01-.506.21c-.09.018-.183.027-.274.027z" fill="#000"/><path d="M51.868 0H20.131c-3.54 0-6.42 2.88-6.42 6.42v54.77c0 3.27 2.46 5.975 5.625 6.368v3.036c0 .776.63 1.406 1.406 1.406h6.89c.777 0 1.407-.63 1.407-1.406V67.61H42.96v2.984c0 .776.63 1.406 1.406 1.406h6.89c.777 0 1.407-.63 1.407-1.406v-3.035c3.165-.394 5.624-3.099 5.624-6.369V6.42c0-3.54-2.88-6.42-6.42-6.42zM16.524 26.86h33.862v19.208a1.406 1.406 0 102.813 0V26.86h2.276v30.375h-38.95V26.86zm0-20.44a3.61 3.61 0 013.607-3.607h31.737a3.61 3.61 0 013.607 3.606v17.628h-2.276V7.414a1.406 1.406 0 10-2.813 0v16.633H16.524V6.419zm9.702 62.767h-4.078V67.61h4.078v1.579zm23.625 0h-4.078V67.61h4.078v1.579zm5.624-7.997a3.61 3.61 0 01-3.607 3.607H20.131a3.61 3.61 0 01-3.607-3.607v-1.143h38.951v1.143z" fill="#000"/></svg>