<svg width="156" height="156" fill="none" xmlns="http://www.w3.org/2000/svg"><path d="M118.548 56.17h-33.32a5.465 5.465 0 005.459-5.463c0-3.015-2.453-5.446-5.46-5.446H71.6a5.446 5.446 0 00-5.454 5.446c0 3.015 2.448 5.463 5.454 5.463H38.275c-9.271 0-16.948 8.31-18.44 17.157h117.167c-1.501-8.85-9.178-17.157-18.454-17.157zM137.272 82.69v-1.558H0v7.801h19.556v48.339c0 10.351 8.385 18.723 18.719 18.723h80.278c10.342 0 18.723-8.372 18.723-18.723v-46.78H156V82.69h-18.728zM49.764 18.75a26.734 26.734 0 001.731 2.059l1.51 1.514c.956.96 1.846 1.921 2.555 2.785.354.434.646.845.863 1.186.208.337.399.598.443.988.053.416-.164.978-.589 1.54-.425.554-1.018 1.09-1.713 1.625.823.32 1.722.425 2.678.31a4.719 4.719 0 002.87-1.443c.862-.908 1.345-2.25 1.42-3.431.085-1.196-.097-2.276-.367-3.25-.545-1.94-1.448-3.511-2.413-4.954-.483-.709-1.08-1.426-1.505-1.98-.425-.5-.82-1.013-1.178-1.522-1.461-2.033-2.484-3.866-2.865-6.017-.398-2.179.045-4.963 1.36-8.156-3.414.718-6.451 3.573-7.443 7.567-.491 1.97-.385 4.135.142 6.034.522 1.94 1.448 3.649 2.501 5.145zM69.993 18.75a27.795 27.795 0 001.732 2.059l1.505 1.514a46.27 46.27 0 012.568 2.785c.34.434.633.845.854 1.186.217.337.399.598.434.988.058.416-.155.978-.58 1.54-.42.554-1.018 1.09-1.722 1.625a5.568 5.568 0 002.687.31 4.707 4.707 0 002.87-1.443c.871-.908 1.345-2.25 1.425-3.431.084-1.196-.093-2.276-.363-3.25-.554-1.94-1.461-3.511-2.426-4.954-.474-.709-1.076-1.426-1.501-1.98-.416-.5-.82-1.013-1.17-1.522-1.465-2.033-2.492-3.865-2.873-6.017-.398-2.17.036-4.955 1.346-8.147-3.409.718-6.441 3.573-7.429 7.567-.491 1.97-.39 4.135.138 6.034.53 1.93 1.438 3.64 2.505 5.136zM88.425 18.75c.54.717 1.12 1.408 1.726 2.059l1.51 1.514c.956.96 1.837 1.921 2.555 2.785.354.434.646.845.863 1.186.208.337.39.598.443.988.057.416-.164.978-.59 1.54-.42.554-1.017 1.09-1.721 1.625a5.544 5.544 0 002.678.31 4.74 4.74 0 002.878-1.443c.863-.908 1.342-2.25 1.417-3.431.088-1.196-.093-2.276-.363-3.25-.545-1.94-1.444-3.511-2.413-4.954-.483-.709-1.08-1.426-1.505-1.98-.426-.5-.824-1.013-1.178-1.522-1.461-2.033-2.484-3.866-2.86-6.017-.403-2.179.04-4.963 1.346-8.156-3.41.718-6.451 3.573-7.434 7.567-.487 1.97-.385 4.135.142 6.034.522 1.94 1.439 3.649 2.506 5.145z" fill="#000"/><path d="M60.981 128.705s.002.001 0 0a1.008 1.008 0 01-.003-.497c.147-.548.71-.874 1.261-.726.316.084.544.317.663.597a1.854 1.854 0 10-1.92.626z" fill="#F6F1EA"/><path d="M54.07 126.188c.276 5.704 4.18 10.828 9.99 12.385 6.663 1.785 13.489-1.746 16.004-7.987l.005-.003c7.825-7.619 27.232 2.725 30.323 5.67-2.531-15.8-9.713-25.113-18.044-29.373a22.09 22.09 0 00-9.362-5.199c-.384-.103-.772-.166-1.153-.249l2.614-2.567 4.133-.228-.055-1.022-4.006.219-1.257-2.245-.892.497 1.224 2.182-2.972 2.916a22.261 22.261 0 00-4.303-.248l-2.562-6.025 3.632-.343-.096-1.016-4.12.388-3.036-2.469-.644.793 3.1 2.519 2.657 6.247c-8.975.807-16.914 7.04-19.446 16.21a20.15 20.15 0 00-.51.816c-.284.476-7.387 4.562-7.387 4.562l6.163 3.57zm29.197-18.329c4.352 1.167 13.005 10.525 12.596 12.054-.411 1.533-12.464 4.864-16.817 3.697a8.154 8.154 0 014.22-15.751z" fill="#F6F1EA"/><g clip-path="url(#clip0)"><path d="M64.19 124.611a.146.146 0 010-.212l2.28-2.28a.327.327 0 00.091-.212.329.329 0 00-.091-.213l-.425-.426a.332.332 0 00-.213-.091.279.279 0 00-.213.091l-2.28 2.28a.146.146 0 01-.212 0l-2.28-2.28a.332.332 0 00-.212-.091.332.332 0 00-.213.091l-.425.426a.329.329 0 00-.092.213c0 .06.03.152.091.212l2.28 2.28c.06.06.06.152 0 .212l-2.28 2.28a.329.329 0 00-.09.213c0 .06.03.152.09.212l.426.426c.06.061.152.091.213.091.06 0 .152-.03.212-.091l2.28-2.28c.06-.06.152-.06.213 0l2.279 2.28c.06.061.152.091.213.091.06 0 .152-.03.213-.091l.425-.426a.327.327 0 00.091-.212.329.329 0 00-.091-.213l-2.28-2.28z" fill="#000"/></g><defs><clipPath id="clip0"><path fill="#fff" d="M59.905 121.177h6.656v6.656h-6.656z"/></clipPath></defs></svg>