<svg width="60" height="67" fill="none" xmlns="http://www.w3.org/2000/svg"><path d="M51.619 63.143l8.338-52.133a3.42 3.42 0 00-2.836-3.915L13.032.043A3.42 3.42 0 009.117 2.88L.779 55.012a3.42 3.42 0 002.836 3.915l44.089 7.051a3.42 3.42 0 003.915-2.835z" fill="#3FA9F5"/><path d="M59.446 55.683l-7.144-52.31a3.42 3.42 0 00-3.85-2.925L4.215 6.49a3.42 3.42 0 00-2.924 3.85l7.144 52.31a3.42 3.42 0 003.85 2.924l44.238-6.042a3.42 3.42 0 002.924-3.85z" fill="#DC4B49"/><path d="M56.11 59.409V6.613a3.42 3.42 0 00-3.418-3.418H8.043a3.42 3.42 0 00-3.418 3.418v52.796a3.42 3.42 0 003.418 3.418h44.65a3.42 3.42 0 003.418-3.418z" fill="url(#paint0_linear)"/><path d="M38.904 62.827H8.044a3.418 3.418 0 01-3.419-3.418V6.613a3.418 3.418 0 013.418-3.418h44.65a3.418 3.418 0 013.418 3.418v39.902c0 .523-.206 1.025-.573 1.398L42.204 61.445a4.633 4.633 0 01-3.3 1.382z" fill="#FDDF6D"/><path d="M30.368 62.827H7.69c-1.693 0-3.066-1.53-3.066-3.418V6.613c0-1.888 1.373-3.418 3.066-3.418h22.677v59.632z" fill="url(#paint1_linear)"/><path d="M11.038 17.603V8.575c0-.127.045-.236.136-.327a.462.462 0 01.34-.136h2.592c2.09 0 3.136.927 3.136 2.782 0 .77-.173 1.374-.518 1.813-.346.439-.814.73-1.405.876l1.91 3.595a.409.409 0 01.054.205c0 .182-.093.35-.28.506a.914.914 0 01-.593.233c-.236 0-.427-.142-.572-.424l-1.991-3.913h-1.378v3.817c0 .146-.07.262-.211.349a.957.957 0 01-.511.13.932.932 0 01-.498-.13c-.141-.086-.211-.203-.211-.348zm1.431-4.964h1.637c1.127 0 1.69-.54 1.69-1.622s-.563-1.623-1.69-1.623h-1.637v3.245z" fill="url(#paint2_linear)"/><path d="M18.66 17.602V8.588c0-.145.064-.26.192-.347a.781.781 0 01.45-.13h4.854c.155 0 .273.064.355.19a.79.79 0 01.123.437.806.806 0 01-.13.464.4.4 0 01-.348.19h-4.05v3.124h2.1c.146 0 .262.057.348.17.087.114.13.252.13.416 0 .146-.041.275-.123.389a.41.41 0 01-.355.17h-2.1v3.137h4.05c.146 0 .262.064.348.19.087.128.13.283.13.465 0 .163-.04.309-.123.436a.396.396 0 01-.354.19h-4.855a.781.781 0 01-.45-.129.4.4 0 01-.191-.348z" fill="url(#paint3_linear)"/><path d="M25.575 15.12v-3.968c0-1.045.279-1.814.838-2.304.56-.491 1.289-.737 2.189-.737.927 0 1.675.23 2.243.689.568.459.853 1.052.853 1.78 0 .29-.055.488-.164.593-.11.104-.296.156-.56.156-.472 0-.713-.159-.722-.477-.054-.972-.586-1.459-1.595-1.459-1.091 0-1.637.586-1.637 1.76v3.967c0 1.173.555 1.76 1.664 1.76.327 0 .6-.048.818-.143a.924.924 0 00.47-.416c.096-.182.162-.341.198-.478.036-.136.064-.304.082-.504.027-.318.264-.478.709-.478.264 0 .452.053.566.157.113.105.17.302.17.593 0 .755-.286 1.369-.859 1.841-.573.473-1.323.71-2.25.71-.9 0-1.627-.246-2.182-.737-.554-.49-.831-1.259-.831-2.304z" fill="url(#paint4_linear)"/><path d="M33.048 17.602V8.575c0-.155.07-.27.211-.348a1.05 1.05 0 01.511-.116c.2 0 .37.039.512.116.14.077.211.193.211.348v9.027c0 .146-.07.262-.211.348a.96.96 0 01-.512.13.967.967 0 01-.504-.13c-.146-.086-.218-.202-.218-.348z" fill="url(#paint5_linear)"/><path d="M36.293 17.602V8.575a.42.42 0 01.157-.327.59.59 0 01.402-.137h2.66c.909 0 1.634.241 2.175.723.54.482.811 1.241.811 2.277v.11c0 1.036-.28 1.797-.838 2.284-.56.486-1.303.73-2.23.73h-1.691v3.368c0 .145-.07.261-.211.347a.96.96 0 01-.512.13.968.968 0 01-.505-.13c-.145-.086-.218-.202-.218-.348zm1.446-4.513h1.69c.519 0 .919-.148 1.2-.444.282-.295.424-.738.424-1.33v-.163c0-.59-.142-1.031-.423-1.323-.282-.29-.682-.436-1.2-.436h-1.691v3.696z" fill="url(#paint6_linear)"/><path d="M43.725 17.602V8.588c0-.145.064-.26.191-.347a.782.782 0 01.45-.13h4.855c.155 0 .273.064.355.19a.79.79 0 01.122.437.806.806 0 01-.13.464.4.4 0 01-.347.19h-4.05v3.124h2.1c.145 0 .261.057.348.17.086.114.13.252.13.416 0 .146-.042.275-.123.389a.41.41 0 01-.355.17h-2.1v3.137h4.05c.145 0 .261.064.348.19.086.128.13.283.13.465 0 .163-.041.309-.123.436a.396.396 0 01-.355.19h-4.855a.78.78 0 01-.45-.129.4.4 0 01-.19-.348z" fill="url(#paint7_linear)"/><path d="M50.647 23.281H19.929v2.56h30.718v-2.56z" fill="url(#paint8_linear)"/><path d="M50.647 33.055H19.929v2.56h30.718v-2.56z" fill="url(#paint9_linear)"/><path d="M50.647 42.83H19.929v2.56h30.718v-2.56z" fill="url(#paint10_linear)"/><path d="M38.458 52.604h-18.53v2.56h18.53v-2.56z" fill="url(#paint11_linear)"/><path d="M18.232 21.773c.449.45.449 1.178 0 1.627l-3.387 3.385a3.082 3.082 0 01-4.354 0L9.24 25.534a1.15 1.15 0 111.626-1.626l1.25 1.25a.78.78 0 001.103 0l3.386-3.385a1.15 1.15 0 011.626 0zM18.232 31.547c.449.45.449 1.178 0 1.627l-3.387 3.385a3.082 3.082 0 01-4.354 0L9.24 35.308a1.15 1.15 0 111.626-1.626l1.25 1.25a.78.78 0 001.103 0l3.386-3.385a1.15 1.15 0 011.626 0zM18.232 41.322c.449.449.449 1.177 0 1.626l-3.387 3.386a3.082 3.082 0 01-4.354 0L9.24 45.082a1.15 1.15 0 111.626-1.626l1.25 1.251a.78.78 0 001.103 0l3.386-3.386a1.15 1.15 0 011.626 0zM18.232 51.096c.449.449.449 1.177 0 1.626l-3.387 3.386a3.082 3.082 0 01-4.354 0L9.24 54.856a1.15 1.15 0 111.626-1.626l1.25 1.251a.78.78 0 001.103 0l3.386-3.386a1.15 1.15 0 011.626 0z" fill="#3FA9F5"/><defs><linearGradient id="paint0_linear" x1="55.864" y1="58.508" x2="51.101" y2="53.746" gradientUnits="userSpaceOnUse"><stop stop-color="#FFE7A5"/><stop offset=".216" stop-color="#FFE29C"/><stop offset=".577" stop-color="#FFD482"/><stop offset="1" stop-color="#FFBF5C"/></linearGradient><linearGradient id="paint1_linear" x1="15.976" y1="33.011" x2="43.114" y2="33.011" gradientUnits="userSpaceOnUse"><stop stop-color="#FFBF5C" stop-opacity="0"/><stop offset="1" stop-color="#FFBF5C"/></linearGradient><linearGradient id="paint2_linear" x1="14.16" y1="7.948" x2="14.16" y2="30.677" gradientUnits="userSpaceOnUse"><stop stop-color="#FF5964"/><stop offset=".242" stop-color="#FF505B"/><stop offset=".643" stop-color="#FF3841"/><stop offset="1" stop-color="#FF1D25"/></linearGradient><linearGradient id="paint3_linear" x1="21.647" y1="7.947" x2="21.647" y2="30.676" gradientUnits="userSpaceOnUse"><stop stop-color="#FF5964"/><stop offset=".242" stop-color="#FF505B"/><stop offset=".643" stop-color="#FF3841"/><stop offset="1" stop-color="#FF1D25"/></linearGradient><linearGradient id="paint4_linear" x1="28.635" y1="7.947" x2="28.635" y2="30.676" gradientUnits="userSpaceOnUse"><stop stop-color="#FF5964"/><stop offset=".242" stop-color="#FF505B"/><stop offset=".643" stop-color="#FF3841"/><stop offset="1" stop-color="#FF1D25"/></linearGradient><linearGradient id="paint5_linear" x1="33.77" y1="7.947" x2="33.77" y2="30.676" gradientUnits="userSpaceOnUse"><stop stop-color="#FF5964"/><stop offset=".242" stop-color="#FF505B"/><stop offset=".643" stop-color="#FF3841"/><stop offset="1" stop-color="#FF1D25"/></linearGradient><linearGradient id="paint6_linear" x1="39.395" y1="7.947" x2="39.395" y2="30.676" gradientUnits="userSpaceOnUse"><stop stop-color="#FF5964"/><stop offset=".242" stop-color="#FF505B"/><stop offset=".643" stop-color="#FF3841"/><stop offset="1" stop-color="#FF1D25"/></linearGradient><linearGradient id="paint7_linear" x1="46.711" y1="7.947" x2="46.711" y2="30.676" gradientUnits="userSpaceOnUse"><stop stop-color="#FF5964"/><stop offset=".242" stop-color="#FF505B"/><stop offset=".643" stop-color="#FF3841"/><stop offset="1" stop-color="#FF1D25"/></linearGradient><linearGradient id="paint8_linear" x1="19.928" y1="24.562" x2="50.646" y2="24.562" gradientUnits="userSpaceOnUse"><stop stop-color="#654E48"/><stop offset="1" stop-color="#503837"/></linearGradient><linearGradient id="paint9_linear" x1="19.928" y1="34.335" x2="50.646" y2="34.335" gradientUnits="userSpaceOnUse"><stop stop-color="#654E48"/><stop offset="1" stop-color="#503837"/></linearGradient><linearGradient id="paint10_linear" x1="19.928" y1="44.11" x2="50.646" y2="44.11" gradientUnits="userSpaceOnUse"><stop stop-color="#654E48"/><stop offset="1" stop-color="#503837"/></linearGradient><linearGradient id="paint11_linear" x1="19.928" y1="53.884" x2="38.457" y2="53.884" gradientUnits="userSpaceOnUse"><stop stop-color="#654E48"/><stop offset="1" stop-color="#503837"/></linearGradient></defs></svg>